<svg width="44" height="44" viewBox="0 0 44 44" fill="none" xmlns="http://www.w3.org/2000/svg">
<g id="Group 1340">
<circle id="Ellipse 9" cx="22" cy="22" r="22" fill="#E0E0D5"/>
<g id="Vector">
<path d="M13.7782 15.636C13.3877 15.2455 13.3876 14.6124 13.7782 14.2218C14.1687 13.8313 14.8019 13.8313 15.1924 14.2218L29.3345 28.364C29.725 28.7545 29.725 29.3876 29.3345 29.7782C28.944 30.1687 28.3108 30.1687 27.9203 29.7782L13.7782 15.636Z" fill="#242422"/>
<path d="M15.1924 29.7782C14.8019 30.1687 14.1687 30.1687 13.7782 29.7782C13.3876 29.3876 13.3877 28.7545 13.7782 28.364L27.9203 14.2218C28.3108 13.8313 28.944 13.8313 29.3345 14.2218C29.725 14.6123 29.725 15.2455 29.3345 15.636L15.1924 29.7782Z" fill="#242422"/>
</g>
</g>
</svg>
