<svg width="12" height="20" viewBox="0 0 12 20" fill="none" xmlns="http://www.w3.org/2000/svg">
<path id="Vector" d="M5.29 4.29L2.79 6.79C2.6017 6.9783 2.49591 7.2337 2.49591 7.5C2.49591 7.7663 2.6017 8.0217 2.79 8.21C2.9783 8.3983 3.2337 8.50409 3.5 8.50409C3.7663 8.50409 4.0217 8.3983 4.21 8.21L5 7.41L5 12.59L4.21 11.79C4.0217 11.6017 3.7663 11.4959 3.5 11.4959C3.2337 11.4959 2.9783 11.6017 2.79 11.79C2.6017 11.9783 2.49591 12.2337 2.49591 12.5C2.49591 12.7663 2.6017 13.0217 2.79 13.21L5.29 15.71C5.3851 15.801 5.49725 15.8724 5.62 15.92C5.86346 16.02 6.13654 16.02 6.38 15.92C6.50275 15.8724 6.6149 15.801 6.71 15.71L9.21 13.21C9.30373 13.117 9.37812 13.0064 9.42889 12.8846C9.47966 12.7627 9.5058 12.632 9.5058 12.5C9.5058 12.368 9.47966 12.2373 9.42889 12.1154C9.37812 11.9936 9.30373 11.883 9.21 11.79C9.11704 11.6963 9.00644 11.6219 8.88458 11.5711C8.76272 11.5203 8.63201 11.4942 8.5 11.4942C8.36799 11.4942 8.23728 11.5203 8.11542 11.5711C7.99356 11.6219 7.88296 11.6963 7.79 11.79L7 12.59L7 7.41L7.79 8.21C7.88296 8.30373 7.99356 8.37812 8.11542 8.42889C8.23728 8.47966 8.36799 8.5058 8.5 8.5058C8.63201 8.5058 8.76272 8.47966 8.88458 8.42889C9.00644 8.37812 9.11704 8.30373 9.21 8.21C9.30373 8.11704 9.37812 8.00644 9.42889 7.88458C9.47966 7.76272 9.5058 7.63201 9.5058 7.5C9.5058 7.36799 9.47966 7.23728 9.42889 7.11542C9.37812 6.99356 9.30373 6.88296 9.21 6.79L6.71 4.29C6.6149 4.19896 6.50275 4.12759 6.38 4.08C6.13654 3.97998 5.86346 3.97998 5.62 4.08C5.49725 4.12759 5.3851 4.19896 5.29 4.29ZM-4.37114e-08 19C-3.21184e-08 19.2652 0.105357 19.5196 0.292893 19.7071C0.48043 19.8946 0.734784 20 1 20L11 20C11.2652 20 11.5196 19.8946 11.7071 19.7071C11.8946 19.5196 12 19.2652 12 19C12 18.7348 11.8946 18.4804 11.7071 18.2929C11.5196 18.1054 11.2652 18 11 18L1 18C0.734783 18 0.48043 18.1054 0.292893 18.2929C0.105357 18.4804 -5.53044e-08 18.7348 -4.37114e-08 19ZM-8.30516e-07 1C-8.18923e-07 1.26522 0.105356 1.51957 0.292893 1.70711C0.480429 1.89464 0.734783 2 0.999999 2L11 2C11.2652 2 11.5196 1.89464 11.7071 1.70711C11.8946 1.51957 12 1.26522 12 0.999999C12 0.734783 11.8946 0.480428 11.7071 0.292892C11.5196 0.105356 11.2652 -4.92418e-07 11 -4.80825e-07L0.999999 -4.37114e-08C0.734783 -3.21184e-08 0.480429 0.105356 0.292893 0.292892C0.105356 0.480429 -8.42109e-07 0.734783 -8.30516e-07 1Z" fill="#109D73"/>
</svg>
