<svg width="16" height="16" viewBox="0 0 16 16" fill="none" xmlns="http://www.w3.org/2000/svg">
<path d="M15.1111 5.42272L9.77779 0.687688C9.28889 0.244833 8.65596 0 8.00003 0C7.34409 0 6.71117 0.244833 6.22226 0.687688L0.888967 5.42272C0.60663 5.67844 0.381326 5.99214 0.228058 6.34294C0.0747893 6.69373 -0.0029267 7.07357 8.42608e-05 7.45716V13.2994C8.42608e-05 14.0157 0.281034 14.7026 0.781127 15.209C1.28122 15.7155 1.95949 16 2.66673 16H13.3333C14.0406 16 14.7188 15.7155 15.2189 15.209C15.719 14.7026 16 14.0157 16 13.2994V7.44816C16.0017 7.06608 15.9234 6.68798 15.7702 6.33883C15.6169 5.98968 15.3923 5.67743 15.1111 5.42272ZM9.77779 14.1996H6.22226V9.69863C6.22226 9.45988 6.31591 9.23092 6.48261 9.0621C6.64931 8.89328 6.8754 8.79844 7.11114 8.79844H8.88891C9.12466 8.79844 9.35075 8.89328 9.51744 9.0621C9.68414 9.23092 9.77779 9.45988 9.77779 9.69863V14.1996ZM14.2222 13.2994C14.2222 13.5382 14.1286 13.7671 13.9619 13.9359C13.7952 14.1048 13.5691 14.1996 13.3333 14.1996H11.5556V9.69863C11.5556 8.98239 11.2746 8.29549 10.7745 7.78903C10.2744 7.28257 9.59615 6.99804 8.88891 6.99804H7.11114C6.40391 6.99804 5.72563 7.28257 5.22554 7.78903C4.72545 8.29549 4.4445 8.98239 4.4445 9.69863V14.1996H2.66673C2.43099 14.1996 2.2049 14.1048 2.0382 13.9359C1.8715 13.7671 1.77785 13.5382 1.77785 13.2994V7.44816C1.77801 7.32034 1.80504 7.19403 1.85715 7.07762C1.90926 6.96121 1.98525 6.85737 2.08007 6.77301L7.41336 2.04698C7.57558 1.90266 7.78411 1.82307 8.00003 1.82307C8.21594 1.82307 8.42448 1.90266 8.58669 2.04698L13.92 6.77301C14.0148 6.85737 14.0908 6.96121 14.1429 7.07762C14.195 7.19403 14.222 7.32034 14.2222 7.44816V13.2994Z" fill="white"/>
</svg>
