<svg width="16" height="16" viewBox="0 0 16 16" fill="none" xmlns="http://www.w3.org/2000/svg">
<path id="Vector" d="M4.40059 3.20043C4.16322 3.20043 3.93118 3.27082 3.73382 3.4027C3.53645 3.53457 3.38263 3.72201 3.29179 3.94131C3.20095 4.16061 3.17719 4.40192 3.22349 4.63473C3.2698 4.86754 3.38411 5.08138 3.55195 5.24923C3.7198 5.41708 3.93364 5.53138 4.16645 5.57769C4.39926 5.624 4.64057 5.60023 4.85987 5.50939C5.07917 5.41855 5.26661 5.26473 5.39849 5.06736C5.53036 4.87 5.60075 4.63796 5.60075 4.40059C5.60075 4.08229 5.4743 3.77702 5.24923 3.55195C5.02416 3.32688 4.71889 3.20043 4.40059 3.20043ZM15.298 6.96893L8.56914 0.232044C8.49438 0.157889 8.40571 0.0992211 8.30823 0.0594042C8.21075 0.0195873 8.10636 -0.000595421 8.00106 1.33732e-05H0.800118C0.587917 1.33732e-05 0.384407 0.0843099 0.234359 0.234359C0.0843099 0.384407 1.33732e-05 0.587917 1.33732e-05 0.800118V8.00106C-0.000595421 8.10636 0.0195873 8.21075 0.0594042 8.30823C0.0992211 8.40571 0.157889 8.49438 0.232044 8.56914L6.96893 15.298C7.41899 15.7475 8.02906 16 8.66515 16C9.30124 16 9.91131 15.7475 10.3614 15.298L15.298 10.4014C15.7475 9.95132 16 9.34124 16 8.70516C16 8.06907 15.7475 7.45899 15.298 7.00893V6.96893ZM14.1699 9.22522L9.22522 14.1619C9.07531 14.3109 8.87253 14.3945 8.66115 14.3945C8.44977 14.3945 8.24699 14.3109 8.09708 14.1619L1.60022 7.67302V1.60022H7.67302L14.1699 8.09708C14.244 8.17184 14.3027 8.2605 14.3425 8.35798C14.3823 8.45547 14.4025 8.55985 14.4019 8.66515C14.401 8.87505 14.3177 9.0762 14.1699 9.22522Z" fill="#109D73"/>
</svg>
