<svg width="255" height="93" viewBox="0 0 255 93" fill="none" xmlns="http://www.w3.org/2000/svg">
<g id="logo">
<g id="The Movers GTA">
<path d="M11.1313 92.6668H6.25933V73.0756H0V68.8775H17.3906V73.0756H11.1313V92.6668Z" fill="#011D67"/>
<path d="M25.3633 72.5092C25.3633 73.3977 25.331 74.2529 25.2665 75.0747C25.2234 75.8966 25.1804 76.4741 25.1374 76.8073H25.3955C25.7827 76.1853 26.2344 75.6856 26.7506 75.3079C27.2669 74.9081 27.8369 74.6194 28.4607 74.4417C29.1059 74.2418 29.7835 74.1418 30.4933 74.1418C31.7624 74.1418 32.8702 74.375 33.8166 74.8415C34.763 75.3079 35.4943 76.0298 36.0106 77.0072C36.5483 77.9845 36.8172 79.2506 36.8172 80.8055V92.6668H32.0098V82.0383C32.0098 80.7277 31.7732 79.7504 31.2999 79.1062C30.8482 78.4399 30.1384 78.1067 29.1705 78.1067C28.2025 78.1067 27.4389 78.3399 26.8797 78.8064C26.3419 79.2728 25.9548 79.9503 25.7182 80.8388C25.4816 81.7273 25.3633 82.8157 25.3633 84.104V92.6668H20.5558V67.3448H25.3633V72.5092Z" fill="#011D67"/>
<path d="M49.0205 74.1418C50.6553 74.1418 52.0534 74.4639 53.2149 75.108C54.398 75.7522 55.3121 76.6851 55.9574 77.9068C56.6027 79.1285 56.9253 80.6278 56.9253 82.4048V84.8037H45.5682C45.6112 86.2031 46.0092 87.3026 46.762 88.1022C47.5363 88.9019 48.6011 89.3017 49.9562 89.3017C51.0962 89.3017 52.1287 89.1906 53.0536 88.9685C53.9785 88.7242 54.9357 88.3577 55.9251 87.869V91.7006C55.0648 92.1448 54.1506 92.4669 53.1827 92.6668C52.2362 92.889 51.0855 93 49.7303 93C47.9665 93 46.4071 92.6668 45.052 92.0005C43.6969 91.3119 42.6321 90.279 41.8578 88.9019C41.0834 87.5247 40.6963 85.7921 40.6963 83.7042C40.6963 81.5718 41.0404 79.8059 41.7287 78.4066C42.4385 76.985 43.4172 75.9188 44.6648 75.208C45.9124 74.4972 47.3643 74.1418 49.0205 74.1418ZM49.0528 77.6736C48.1279 77.6736 47.3535 77.9845 46.7297 78.6065C46.1275 79.2284 45.7725 80.1946 45.665 81.5052H52.4083C52.4083 80.7722 52.2792 80.1169 52.0211 79.5394C51.7845 78.9619 51.4189 78.5065 50.9241 78.1733C50.4294 77.8401 49.8056 77.6736 49.0528 77.6736Z" fill="#011D67"/>
<path d="M79.3359 92.6668L73.7864 74.0085H73.6573C73.6788 74.4528 73.7111 75.1191 73.7541 76.0076C73.7971 76.8961 73.8401 77.8513 73.8832 78.873C73.9262 79.8726 73.9477 80.7833 73.9477 81.6051V92.6668H69.592V68.8775H76.2385L81.6912 87.0693H81.788L87.5634 68.8775H94.2099V92.6668H89.6606V81.4052C89.6606 80.65 89.6713 79.7837 89.6928 78.8064C89.7358 77.829 89.7681 76.9072 89.7896 76.041C89.8326 75.1525 89.8649 74.4861 89.8864 74.0418H89.7573L83.8207 92.6668H79.3359Z" fill="#011D67"/>
<path d="M115.645 83.5376C115.645 85.048 115.441 86.3919 115.032 87.5691C114.645 88.7464 114.075 89.7459 113.322 90.5678C112.591 91.3674 111.698 91.9783 110.644 92.4003C109.59 92.8001 108.396 93 107.063 93C105.837 93 104.697 92.8001 103.643 92.4003C102.61 91.9783 101.718 91.3674 100.965 90.5678C100.212 89.7459 99.6204 88.7464 99.1902 87.5691C98.7815 86.3919 98.5772 85.048 98.5772 83.5376C98.5772 81.5163 98.9213 79.817 99.6096 78.4399C100.298 77.0405 101.287 75.9743 102.578 75.2413C103.869 74.5083 105.396 74.1418 107.16 74.1418C108.816 74.1418 110.278 74.5083 111.548 75.2413C112.817 75.9743 113.817 77.0405 114.548 78.4399C115.279 79.817 115.645 81.5163 115.645 83.5376ZM103.481 83.5376C103.481 84.7371 103.6 85.7477 103.836 86.5696C104.094 87.3692 104.492 87.98 105.03 88.4021C105.568 88.8019 106.267 89.0018 107.127 89.0018C107.988 89.0018 108.676 88.8019 109.192 88.4021C109.73 87.98 110.117 87.3692 110.354 86.5696C110.612 85.7477 110.741 84.7371 110.741 83.5376C110.741 82.3381 110.612 81.3386 110.354 80.5389C110.117 79.7393 109.73 79.1396 109.192 78.7397C108.654 78.3399 107.955 78.14 107.095 78.14C105.826 78.14 104.901 78.5954 104.32 79.5061C103.761 80.3946 103.481 81.7384 103.481 83.5376Z" fill="#011D67"/>
<path d="M123.182 92.6668L116.471 74.475H121.505L124.892 84.837C125.022 85.2368 125.129 85.6589 125.215 86.1031C125.323 86.5474 125.398 86.9805 125.441 87.4025C125.506 87.8246 125.549 88.2133 125.57 88.5687H125.699C125.721 88.1911 125.764 87.7912 125.828 87.3692C125.893 86.9472 125.968 86.5251 126.054 86.1031C126.162 85.6589 126.28 85.2368 126.409 84.837L129.797 74.475H134.83L128.119 92.6668H123.182Z" fill="#011D67"/>
<path d="M144.617 74.1418C146.252 74.1418 147.65 74.4639 148.811 75.108C149.994 75.7522 150.909 76.6851 151.554 77.9068C152.199 79.1285 152.522 80.6278 152.522 82.4048V84.8037H141.165C141.208 86.2031 141.606 87.3026 142.358 88.1022C143.133 88.9019 144.198 89.3017 145.553 89.3017C146.693 89.3017 147.725 89.1906 148.65 88.9685C149.575 88.7242 150.532 88.3577 151.522 87.869V91.7006C150.661 92.1448 149.747 92.4669 148.779 92.6668C147.833 92.889 146.682 93 145.327 93C143.563 93 142.004 92.6668 140.648 92.0005C139.293 91.3119 138.229 90.279 137.454 88.9019C136.68 87.5247 136.293 85.7921 136.293 83.7042C136.293 81.5718 136.637 79.8059 137.325 78.4066C138.035 76.985 139.014 75.9188 140.261 75.208C141.509 74.4972 142.961 74.1418 144.617 74.1418ZM144.649 77.6736C143.724 77.6736 142.95 77.9845 142.326 78.6065C141.724 79.2284 141.369 80.1946 141.261 81.5052H148.005C148.005 80.7722 147.876 80.1169 147.618 79.5394C147.381 78.9619 147.015 78.5065 146.521 78.1733C146.026 77.8401 145.402 77.6736 144.649 77.6736Z" fill="#011D67"/>
<path d="M166.261 74.1418C166.497 74.1418 166.777 74.1529 167.1 74.1751C167.422 74.1973 167.68 74.2307 167.874 74.2751L167.519 78.9397C167.369 78.8952 167.143 78.8619 166.842 78.8397C166.562 78.7953 166.315 78.7731 166.099 78.7731C165.476 78.7731 164.873 78.8619 164.293 79.0396C163.712 79.1951 163.185 79.4505 162.712 79.8059C162.26 80.1613 161.894 80.6389 161.615 81.2386C161.357 81.8161 161.227 82.538 161.227 83.4043V92.6668H156.42V74.475H160.066L160.776 77.5403H161.002C161.346 76.9183 161.776 76.3519 162.292 75.841C162.808 75.3302 163.4 74.9192 164.067 74.6083C164.755 74.2973 165.486 74.1418 166.261 74.1418Z" fill="#011D67"/>
<path d="M183.364 87.2693C183.364 88.4909 183.085 89.5349 182.525 90.4012C181.966 91.2453 181.127 91.8894 180.009 92.3337C178.89 92.7779 177.503 93 175.847 93C174.621 93 173.567 92.9112 172.685 92.7335C171.803 92.578 170.921 92.3114 170.039 91.9338V87.8357C170.985 88.2799 172.007 88.6464 173.104 88.9352C174.201 89.2239 175.169 89.3683 176.008 89.3683C176.954 89.3683 177.621 89.2239 178.008 88.9352C178.417 88.6464 178.621 88.2688 178.621 87.8024C178.621 87.4914 178.535 87.2137 178.363 86.9694C178.213 86.7251 177.869 86.4474 177.331 86.1364C176.793 85.8255 175.954 85.4256 174.814 84.937C173.717 84.4483 172.814 83.9707 172.104 83.5043C171.394 83.0156 170.867 82.4381 170.523 81.7717C170.179 81.0831 170.007 80.228 170.007 79.2062C170.007 77.5181 170.641 76.252 171.91 75.4079C173.179 74.5638 174.868 74.1418 176.976 74.1418C178.073 74.1418 179.116 74.2529 180.106 74.475C181.095 74.6971 182.117 75.0636 183.171 75.5745L181.719 79.1396C181.138 78.873 180.579 78.6398 180.041 78.4399C179.503 78.24 178.976 78.0845 178.46 77.9734C177.965 77.8624 177.449 77.8068 176.911 77.8068C176.202 77.8068 175.664 77.9068 175.298 78.1067C174.954 78.3066 174.782 78.6065 174.782 79.0063C174.782 79.2951 174.868 79.5616 175.04 79.8059C175.234 80.0281 175.589 80.2724 176.105 80.5389C176.642 80.8055 177.428 81.1609 178.46 81.6051C179.471 82.0272 180.342 82.4714 181.073 82.9379C181.805 83.3821 182.364 83.9485 182.751 84.6371C183.16 85.3035 183.364 86.1809 183.364 87.2693Z" fill="#011D67"/>
<path d="M204.621 79.3062H213.752V91.634C212.548 92.056 211.289 92.3892 209.977 92.6335C208.687 92.8779 207.213 93 205.557 93C203.277 93 201.33 92.5336 199.717 91.6007C198.125 90.6677 196.91 89.2906 196.071 87.4692C195.254 85.6478 194.845 83.4043 194.845 80.7388C194.845 78.2511 195.308 76.0965 196.233 74.2751C197.179 72.4537 198.545 71.0432 200.33 70.0436C202.115 69.0441 204.299 68.5443 206.88 68.5443C208.106 68.5443 209.31 68.6776 210.493 68.9441C211.677 69.2107 212.752 69.5661 213.72 70.0103L212.107 74.0418C211.397 73.6642 210.59 73.3533 209.687 73.1089C208.783 72.8646 207.837 72.7424 206.848 72.7424C205.428 72.7424 204.191 73.0756 203.137 73.742C202.105 74.4084 201.298 75.3524 200.717 76.574C200.158 77.7735 199.878 79.1951 199.878 80.8388C199.878 82.3937 200.083 83.7708 200.491 84.9703C200.9 86.1698 201.545 87.1138 202.427 87.8024C203.309 88.4687 204.46 88.8019 205.88 88.8019C206.353 88.8019 206.762 88.7908 207.106 88.7686C207.471 88.7242 207.805 88.6797 208.106 88.6353C208.407 88.5687 208.697 88.5131 208.977 88.4687V83.5043H204.621V79.3062Z" fill="#011D67"/>
<path d="M228.098 92.6668H223.226V73.0756H216.967V68.8775H234.357V73.0756H228.098V92.6668Z" fill="#011D67"/>
<path d="M249.741 92.6668L248.063 87.0027H239.674L237.997 92.6668H232.737L240.868 68.7775H246.837L255 92.6668H249.741ZM245.224 77.2404C245.116 76.8628 244.976 76.3852 244.804 75.8077C244.632 75.2302 244.46 74.6416 244.288 74.0418C244.116 73.4421 243.976 72.9201 243.869 72.4759C243.761 72.9201 243.611 73.4754 243.417 74.1418C243.245 74.786 243.073 75.4079 242.901 76.0076C242.75 76.5852 242.632 76.9961 242.546 77.2404L240.9 82.7713H246.902L245.224 77.2404Z" fill="#011D67"/>
</g>
<path id="&#239;&#146;&#139;" d="M163.975 41.8901H162.038V29.0374C162.038 27.6094 161.312 26.0623 160.222 24.9912L148.239 13.2097C147.15 12.1386 145.576 11.4246 144.123 11.4246H138.798V5.71229C138.798 2.61813 136.135 0 132.987 0H102C98.7319 0 96.19 2.61813 96.19 5.71229V11.4246H89.4115C88.8062 11.4246 88.4431 11.9006 88.4431 12.3766V14.2807C88.4431 14.8757 88.8062 15.2328 89.4115 15.2328H122.336C122.82 15.2328 123.304 15.7088 123.304 16.1848V18.0889C123.304 18.6839 122.82 19.0409 122.336 19.0409H93.2849C92.6797 19.0409 92.3165 19.517 92.3165 19.993V21.8971C92.3165 22.4921 92.6797 22.8491 93.2849 22.8491H118.462C118.946 22.8491 119.43 23.3252 119.43 23.8012V25.7053C119.43 26.3003 118.946 26.6573 118.462 26.6573H89.4115C88.8062 26.6573 88.4431 27.1334 88.4431 27.6094V29.5135C88.4431 30.1085 88.8062 30.4655 89.4115 30.4655H114.589C115.073 30.4655 115.557 30.9415 115.557 31.4176V33.3217C115.557 33.9167 115.073 34.2737 114.589 34.2737H96.19V49.5065C96.19 55.8138 101.395 60.931 107.81 60.931C114.226 60.931 119.43 55.8138 119.43 49.5065H134.924C134.924 55.8138 140.129 60.931 146.544 60.931C152.96 60.931 158.165 55.8138 158.165 49.5065H163.975C164.943 49.5065 165.911 48.6734 165.911 47.6024V43.7942C165.911 42.8421 164.943 41.8901 163.975 41.8901ZM107.81 55.2188C104.542 55.2188 102 52.7196 102 49.5065C102 46.4123 104.542 43.7942 107.81 43.7942C110.957 43.7942 113.62 46.4123 113.62 49.5065C113.62 52.7196 110.957 55.2188 107.81 55.2188ZM146.544 55.2188C143.276 55.2188 140.734 52.7196 140.734 49.5065C140.734 46.4123 143.276 43.7942 146.544 43.7942C149.692 43.7942 152.355 46.4123 152.355 49.5065C152.355 52.7196 149.692 55.2188 146.544 55.2188ZM156.228 30.4655H138.798V17.1369H144.123L156.228 29.0374V30.4655Z" fill="#011D67"/>
</g>
</svg>
