<svg width="17" height="16" viewBox="0 0 17 16" fill="none" xmlns="http://www.w3.org/2000/svg">
<g id="fi_3759325">
<path id="Vector" d="M8.49995 11.9999C8.32345 11.9984 8.15446 11.9283 8.02861 11.8046L1.36195 5.13789C1.24051 5.01216 1.17331 4.84376 1.17483 4.66896C1.17635 4.49416 1.24646 4.32695 1.37007 4.20335C1.49367 4.07974 1.66088 4.00963 1.83568 4.00811C2.01048 4.00659 2.17888 4.07379 2.30461 4.19522L8.49995 10.3906L14.6953 4.19522C14.7568 4.13155 14.8303 4.08076 14.9117 4.04582C14.993 4.01088 15.0805 3.99249 15.169 3.99172C15.2575 3.99096 15.3453 4.00782 15.4272 4.04134C15.5092 4.07486 15.5836 4.12437 15.6462 4.18696C15.7088 4.24956 15.7583 4.32399 15.7918 4.40592C15.8253 4.48785 15.8422 4.57564 15.8414 4.66416C15.8407 4.75268 15.8223 4.84016 15.7873 4.92149C15.7524 5.00283 15.7016 5.07639 15.6379 5.13789L8.97128 11.8046C8.84544 11.9283 8.67644 11.9984 8.49995 11.9999Z" fill="white"/>
</g>
</svg>
