<svg width="457" height="96" viewBox="0 0 457 96" fill="none" xmlns="http://www.w3.org/2000/svg">
<path d="M10.2402 70.1747V6.31547H21.8978V59.8887H49.2415V70.1747H10.2402Z" fill="#fff"/>
<path d="M77.9573 71.2033C73.1571 71.2033 68.957 70.1176 65.3569 67.9461C61.7567 65.7746 58.9567 62.8316 56.9566 59.1172C54.9565 55.4028 53.9565 51.2884 53.9565 46.774C53.9565 42.0881 54.9565 37.9451 56.9566 34.345C59.0138 30.6877 61.7853 27.8019 65.2712 25.6875C68.8141 23.5732 72.7571 22.516 77.1001 22.516C80.7574 22.516 83.9575 23.116 86.7004 24.3161C89.5005 25.5161 91.872 27.1733 93.815 29.2877C95.7579 31.402 97.2437 33.8307 98.2723 36.5736C99.3009 39.2594 99.8152 42.1738 99.8152 45.3168C99.8152 46.1168 99.758 46.9454 99.6437 47.8026C99.5866 48.6597 99.4437 49.4026 99.2151 50.0312H63.2139V41.4595H92.8721L87.5576 45.4882C88.0719 42.8595 87.929 40.5166 87.129 38.4594C86.3861 36.4022 85.129 34.7736 83.3575 33.5735C81.6431 32.3735 79.5573 31.7735 77.1001 31.7735C74.7572 31.7735 72.6714 32.3735 70.8428 33.5735C69.0141 34.7164 67.6141 36.4308 66.6426 38.7165C65.7283 40.9452 65.3854 43.6596 65.614 46.8597C65.3854 49.7169 65.7569 52.2599 66.7283 54.4885C67.757 56.66 69.2427 58.3458 71.1856 59.5458C73.1857 60.7458 75.4715 61.3459 78.043 61.3459C80.6145 61.3459 82.786 60.803 84.5575 59.7172C86.3861 58.6315 87.8148 57.1743 88.8434 55.3457L97.9294 59.803C97.0151 62.0316 95.5864 64.0031 93.6435 65.7174C91.7006 67.4318 89.3862 68.7747 86.7004 69.7462C84.0718 70.7176 81.1574 71.2033 77.9573 71.2033Z" fill="#fff"/>
<path d="M130.957 89.0325C127.471 89.0325 124.242 88.4611 121.271 87.3182C118.299 86.1753 115.728 84.5752 113.556 82.518C111.442 80.5179 109.899 78.1464 108.927 75.4035L119.385 71.4605C120.071 73.632 121.413 75.3749 123.413 76.6892C125.471 78.0607 127.985 78.7465 130.957 78.7465C133.242 78.7465 135.242 78.3179 136.957 77.4607C138.728 76.6035 140.1 75.3463 141.071 73.6891C142.043 72.0891 142.528 70.1462 142.528 67.8604V57.2314L144.671 59.803C143.071 62.6031 140.928 64.7174 138.243 66.146C135.557 67.5746 132.5 68.289 129.071 68.289C124.728 68.289 120.842 67.2889 117.413 65.2889C113.985 63.2888 111.299 60.5458 109.356 57.06C107.413 53.5742 106.441 49.6598 106.441 45.3168C106.441 40.9166 107.413 37.0022 109.356 33.5735C111.299 30.1448 113.956 27.459 117.328 25.5161C120.699 23.516 124.528 22.516 128.814 22.516C132.299 22.516 135.357 23.2589 137.985 24.7447C140.671 26.1733 142.9 28.2591 144.671 31.002L143.128 33.8307V23.5446H153.757V67.8604C153.757 71.9176 152.757 75.5463 150.757 78.7465C148.814 81.9466 146.129 84.4609 142.7 86.2896C139.328 88.1182 135.414 89.0325 130.957 89.0325ZM130.442 57.9172C132.842 57.9172 134.928 57.4029 136.7 56.3743C138.528 55.2885 139.957 53.8028 140.986 51.917C142.014 50.0312 142.528 47.8597 142.528 45.4025C142.528 43.0024 141.986 40.8595 140.9 38.9737C139.871 37.0308 138.443 35.5164 136.614 34.4307C134.842 33.3449 132.785 32.8021 130.442 32.8021C128.099 32.8021 125.985 33.3449 124.099 34.4307C122.213 35.5164 120.728 37.0308 119.642 38.9737C118.613 40.8595 118.099 43.0024 118.099 45.4025C118.099 47.8026 118.613 49.9455 119.642 51.8313C120.728 53.717 122.185 55.2028 124.014 56.2886C125.899 57.3743 128.042 57.9172 130.442 57.9172Z" fill="#fff"/>
<path d="M178.388 71.2033C175.13 71.2033 172.302 70.6605 169.902 69.5747C167.502 68.489 165.644 66.9461 164.33 64.946C163.016 62.8888 162.359 60.5173 162.359 57.8315C162.359 55.26 162.93 52.9742 164.073 50.9741C165.216 48.9169 166.987 47.2025 169.387 45.8311C171.787 44.4596 174.816 43.4881 178.473 42.9167L193.731 40.4309V49.0026L180.616 51.2313C178.388 51.6313 176.73 52.3456 175.645 53.3742C174.559 54.4028 174.016 55.7457 174.016 57.4029C174.016 59.0029 174.616 60.2887 175.816 61.2602C177.073 62.1745 178.616 62.6316 180.445 62.6316C182.788 62.6316 184.845 62.1459 186.616 61.1744C188.445 60.1458 189.845 58.7458 190.817 56.9743C191.845 55.2028 192.36 53.2599 192.36 51.1455V39.1451C192.36 37.1451 191.559 35.4879 189.959 34.1735C188.417 32.8021 186.359 32.1163 183.788 32.1163C181.388 32.1163 179.245 32.7735 177.359 34.0878C175.53 35.345 174.188 37.0308 173.33 39.1451L164.159 34.6878C165.073 32.2306 166.502 30.1163 168.444 28.3448C170.445 26.5161 172.787 25.0875 175.473 24.0589C178.159 23.0303 181.073 22.516 184.216 22.516C188.045 22.516 191.417 23.2303 194.331 24.6589C197.245 26.0304 199.503 27.9733 201.103 30.4877C202.76 32.9449 203.588 35.8307 203.588 39.1451V70.1747H192.96V62.203L195.36 62.0316C194.16 64.0317 192.731 65.7174 191.074 67.0889C189.417 68.4033 187.531 69.4319 185.416 70.1747C183.302 70.8605 180.959 71.2033 178.388 71.2033Z" fill="#fff"/>
<path d="M213.967 70.1747V5.28687H225.196V70.1747H213.967Z" fill="#fff"/>
<path d="M240.878 70.1747V58.1743H252.193V70.1747H240.878Z" fill="#fff"/>
<path d="M290.417 71.2033C285.788 71.2033 281.616 70.1462 277.902 68.0318C274.245 65.8603 271.359 62.9459 269.244 59.2887C267.13 55.5743 266.073 51.4027 266.073 46.774C266.073 42.1452 267.13 38.0022 269.244 34.345C271.359 30.6877 274.245 27.8019 277.902 25.6875C281.616 23.5732 285.788 22.516 290.417 22.516C293.731 22.516 296.817 23.116 299.674 24.3161C302.531 25.459 304.988 27.059 307.046 29.1162C309.16 31.1163 310.674 33.5164 311.589 36.3165L301.731 40.6023C300.874 38.2594 299.417 36.3736 297.36 34.945C295.36 33.5164 293.045 32.8021 290.417 32.8021C287.959 32.8021 285.759 33.4021 283.816 34.6021C281.931 35.8022 280.445 37.4594 279.359 39.5737C278.273 41.6881 277.73 44.1167 277.73 46.8597C277.73 49.6026 278.273 52.0313 279.359 54.1456C280.445 56.26 281.931 57.9172 283.816 59.1172C285.759 60.3173 287.959 60.9173 290.417 60.9173C293.102 60.9173 295.445 60.203 297.445 58.7744C299.445 57.3457 300.874 55.4314 301.731 53.0313L311.589 57.4886C310.674 60.1173 309.189 62.4888 307.131 64.6031C305.074 66.6603 302.617 68.289 299.76 69.489C296.902 70.6319 293.788 71.2033 290.417 71.2033Z" fill="#fff"/>
<path d="M342.91 71.2033C338.338 71.2033 334.166 70.1462 330.395 68.0318C326.681 65.9174 323.709 63.0316 321.48 59.3744C319.309 55.7171 318.223 51.5455 318.223 46.8597C318.223 42.1738 319.309 38.0022 321.48 34.345C323.709 30.6877 326.681 27.8019 330.395 25.6875C334.109 23.5732 338.281 22.516 342.91 22.516C347.481 22.516 351.624 23.5732 355.339 25.6875C359.053 27.8019 361.996 30.6877 364.167 34.345C366.396 37.9451 367.51 42.1167 367.51 46.8597C367.51 51.5455 366.396 55.7171 364.167 59.3744C361.939 63.0316 358.967 65.9174 355.253 68.0318C351.538 70.1462 347.424 71.2033 342.91 71.2033ZM342.91 60.9173C345.424 60.9173 347.624 60.3173 349.51 59.1172C351.453 57.9172 352.967 56.26 354.053 54.1456C355.196 51.9741 355.767 49.5455 355.767 46.8597C355.767 44.1167 355.196 41.7166 354.053 39.6594C352.967 37.5451 351.453 35.8879 349.51 34.6878C347.624 33.4307 345.424 32.8021 342.91 32.8021C340.338 32.8021 338.081 33.4307 336.138 34.6878C334.195 35.8879 332.652 37.5451 331.509 39.6594C330.423 41.7166 329.881 44.1167 329.881 46.8597C329.881 49.5455 330.423 51.9741 331.509 54.1456C332.652 56.26 334.195 57.9172 336.138 59.1172C338.081 60.3173 340.338 60.9173 342.91 60.9173Z" fill="#fff"/>
<path d="M376.026 70.1747V23.5446H386.569V34.345L385.369 32.5449C386.226 29.1734 387.941 26.659 390.512 25.0018C393.084 23.3446 396.112 22.516 399.598 22.516C403.427 22.516 406.798 23.516 409.713 25.5161C412.627 27.5162 414.513 30.1448 415.37 33.4021L412.199 33.6592C413.627 29.9448 415.77 27.1733 418.627 25.3447C421.485 23.4589 424.77 22.516 428.485 22.516C431.799 22.516 434.742 23.2589 437.314 24.7447C439.942 26.2304 442 28.3162 443.485 31.002C444.971 33.6307 445.714 36.6879 445.714 40.1737V70.1747H434.485V42.831C434.485 40.7738 434.114 39.0023 433.371 37.5165C432.628 36.0307 431.599 34.8878 430.285 34.0878C428.971 33.2307 427.37 32.8021 425.485 32.8021C423.713 32.8021 422.142 33.2307 420.77 34.0878C419.399 34.8878 418.342 36.0307 417.599 37.5165C416.856 39.0023 416.484 40.7738 416.484 42.831V70.1747H405.255V42.831C405.255 40.7738 404.884 39.0023 404.141 37.5165C403.398 36.0307 402.341 34.8878 400.97 34.0878C399.655 33.2307 398.084 32.8021 396.255 32.8021C394.484 32.8021 392.912 33.2307 391.541 34.0878C390.169 34.8878 389.112 36.0307 388.369 37.5165C387.626 39.0023 387.255 40.7738 387.255 42.831V70.1747H376.026Z" fill="#fff"/>
</svg>
