<svg width="196" height="33" viewBox="0 0 196 33" fill="none" xmlns="http://www.w3.org/2000/svg">
<g id="logo" clip-path="url(#clip0_253_2256)">
<g id="Capa 2">
<g id="Capa 1">
<path id="Vector" d="M79.8663 28.0717H69.4939C68.1267 28.1334 66.7835 27.6983 65.7151 26.8474C65.2182 26.3905 64.8317 25.8277 64.5846 25.2011C64.3375 24.5745 64.2361 23.9004 64.2882 23.2293V5.71558H68.6786V23.2293C68.6786 23.8921 69.1647 24.2274 70.1368 24.2274H79.8741L79.8663 28.0717Z" fill="black"/>
<path id="Vector_2" d="M84.5466 10.0823C82.7905 10.0823 81.9045 9.25573 81.9045 7.59482C81.9045 5.9339 82.7905 5.19312 84.5466 5.19312C86.3028 5.19312 87.173 5.97289 87.173 7.59482C87.173 9.21674 86.2949 10.0823 84.5466 10.0823ZM86.734 28.0171H82.3201V11.6106H86.7105L86.734 28.0171Z" fill="black"/>
<path id="Vector_3" d="M105.283 28.0717H100.893V18.2154C100.968 17.3623 100.734 16.5107 100.234 15.8137C99.7875 15.3224 98.8624 15.0339 97.4433 15.0339C96.0243 15.0339 95.0913 15.2834 94.6445 15.8137C94.1377 16.5078 93.901 17.361 93.9781 18.2154V28.0717H89.5876V18.1218C89.5876 15.7045 90.2802 13.989 91.6652 12.9753C93.3679 11.8535 95.3883 11.3067 97.4276 11.4157C99.9051 11.4157 101.826 11.9226 103.214 12.9753C104.601 14.028 105.283 15.7045 105.283 18.1218V28.0717Z" fill="black"/>
<path id="Vector_4" d="M124.342 28.0716H118.98L113.68 21.1005H112.543V28.0716H108.153V4.79541H112.543V17.3498H113.774L118.055 11.6106H123.3L117.357 19.0263L124.342 28.0716Z" fill="black"/>
<path id="Vector_5" d="M145.079 28.0715H139.779L134.495 19.8683H130.575V28.0715H126.224V5.71542H134.315C136.556 5.58721 138.772 6.23472 140.587 7.54789C141.365 8.18819 141.98 9.00219 142.382 9.92361C142.784 10.845 142.961 11.8478 142.9 12.8503C142.9 15.8343 141.619 17.8435 139.058 18.878L145.079 28.0715ZM134.268 16.063C135.37 16.1401 136.468 15.8671 137.404 15.2832C137.761 14.9939 138.041 14.6228 138.221 14.2016C138.402 13.7805 138.476 13.3221 138.439 12.8659C138.473 12.4128 138.412 11.9576 138.26 11.5293C138.107 11.101 137.866 10.709 137.553 10.3785C136.965 9.82482 135.867 9.5441 134.252 9.5441H130.575V16.0552L134.268 16.063Z" fill="black"/>
<path id="Vector_6" d="M151.994 28.2043C150.318 28.2735 148.666 27.7941 147.29 26.8397C146.695 26.413 146.214 25.8467 145.892 25.1911C145.569 24.5355 145.414 23.8108 145.44 23.0812C145.411 22.304 145.601 21.5341 145.989 20.8588C146.377 20.1835 146.947 19.6298 147.635 19.2603C149.101 18.4026 151.171 17.9737 153.852 17.9581H156.51V17.4747C156.51 15.8787 155.295 15.0782 152.864 15.073C151.5 15.073 149.561 15.1483 147.047 15.2991V12.063C148.967 11.6702 150.92 11.4639 152.88 11.447C155.561 11.447 157.584 11.9851 158.901 13.0534C159.573 13.6114 160.104 14.3183 160.451 15.1173C160.798 15.9163 160.952 16.7851 160.9 17.654V28.0718H156.51V26.6916C155.616 27.7053 154.111 28.2043 151.994 28.2043ZM152.355 24.5706C153.425 24.6378 154.494 24.4197 155.452 23.939C155.767 23.7775 156.032 23.5327 156.218 23.2316C156.403 22.9304 156.501 22.5844 156.502 22.2313V20.9057H153.539C152.534 20.8166 151.525 20.997 150.614 21.4281C150.376 21.5649 150.178 21.7615 150.041 21.9983C149.903 22.235 149.831 22.5036 149.83 22.7771C149.83 23.0232 149.888 23.2659 149.999 23.4855C150.111 23.705 150.273 23.8952 150.473 24.0404C151.02 24.4284 151.685 24.6158 152.355 24.5706Z" fill="black"/>
<path id="Vector_7" d="M172.002 28.1884C169.664 28.31 167.368 27.5403 165.581 26.0363C164.013 24.5911 163.229 22.4961 163.229 19.7513C163.229 16.9831 164.013 14.9167 165.581 13.5131C167.388 12.0526 169.676 11.3108 172.002 11.4311C173.806 11.5082 175.598 11.7695 177.349 12.2109V15.8602C175.604 15.416 173.817 15.1546 172.017 15.0804C170.379 15.0804 169.226 15.4625 168.568 16.2111C167.825 17.2334 167.474 18.4865 167.58 19.7435C167.485 21.0178 167.831 22.2861 168.56 23.3382C169.219 24.118 170.371 24.5469 172.01 24.5469C173.799 24.4941 175.582 24.3012 177.341 23.9699V27.3541C175.598 27.8311 173.807 28.111 172.002 28.1884Z" fill="black"/>
<path id="Vector_8" d="M196 28.0716H190.637L185.322 21.1395H184.193V28.0716H179.795V4.79541H184.193V17.3498H185.424L189.728 11.6106H194.981L189.03 19.0263L196 28.0716Z" fill="black"/>
<path id="Vector_9" d="M42.3986 9.40381V15.104H50.1759V27.2918H22.8927V15.104H32.0106V9.40381H28.0906C24.9487 9.41001 21.9376 10.6557 19.7182 12.8676C17.4987 15.0795 16.2522 18.0768 16.2522 21.2018C16.2522 22.7518 16.5593 24.2866 17.1559 25.7185C17.7525 27.1504 18.6269 28.4513 19.7292 29.547C20.8316 30.6426 22.1401 31.5115 23.5802 32.1039C25.0203 32.6964 26.5636 33.0008 28.122 32.9997H44.9466C46.5046 33.0008 48.0476 32.6963 49.4872 32.1038C50.9268 31.5112 52.2349 30.6422 53.3365 29.5465C54.4382 28.4507 55.3119 27.1497 55.9077 25.7179C56.5034 24.286 56.8096 22.7514 56.8085 21.2018C56.8096 19.6522 56.5034 18.1175 55.9077 16.6857C55.3119 15.2538 54.4382 13.9528 53.3365 12.8571C52.2349 11.7613 50.9268 10.8923 49.4872 10.2998C48.0476 9.70725 46.5046 9.40279 44.9466 9.40381H42.3986Z" fill="url(#paint0_linear_253_2256)"/>
<path id="Vector_10" d="M0 11.798C-6.86394e-07 14.9277 1.24948 17.9294 3.4738 20.1431C5.69812 22.3569 8.71522 23.6017 11.8619 23.6037H14.4099V17.9348H6.63264V5.70014H33.9158V17.9348H24.8058V23.6349H28.7258C31.8725 23.6246 34.8863 22.3719 37.1047 20.1523C39.3231 17.9327 40.5647 14.9277 40.5563 11.798C40.5542 8.66824 39.3028 5.6674 37.077 3.45507C34.8512 1.24275 31.8333 -6.82693e-07 28.6866 0L11.8619 0C8.71658 0.00206562 5.70066 1.24573 3.47657 3.45783C1.25248 5.66993 0.00207682 8.66959 0 11.798Z" fill="#003FC1"/>
</g>
</g>
</g>
<defs>
<linearGradient id="paint0_linear_253_2256" x1="54.582" y1="3.2514" x2="22.1829" y2="35.8261" gradientUnits="userSpaceOnUse">
<stop stop-color="#F7931E"/>
<stop offset="1" stop-color="#F15A24"/>
</linearGradient>
<clipPath id="clip0_253_2256">
<rect width="196" height="33" fill="white"/>
</clipPath>
</defs>
</svg>
