<svg width="110" height="40" viewBox="0 0 110 40" fill="none" xmlns="http://www.w3.org/2000/svg">
<path d="M15.701 8.73437C15.3735 9.62737 14.5996 10.7436 13.8257 11.4283C13.1708 11.9938 11.7569 12.7975 11.3848 12.7975C10.9978 12.7975 11.2955 13.0505 12.0545 13.378C13.4982 14.0031 14.8973 15.4914 15.5075 17.0542L15.7903 17.7686L16.2814 16.7565C17.0405 15.164 18.4246 13.9287 20.2106 13.244C20.6273 13.0952 20.6273 13.0952 19.5557 12.5594C17.9037 11.7259 16.8023 10.4757 16.0433 8.51112C15.9093 8.18368 15.8944 8.18368 15.701 8.73437Z" fill="white"/>
<path d="M11.221 20.4624V20.8345H9.12243H7.03876L6.84528 21.3108C6.74109 21.5787 6.22018 23.1563 5.71414 24.8084L4.77649 27.8148L4.09186 27.8594L3.40723 27.9041L3.43699 28.5292C3.48164 29.6901 4.46394 30.9998 5.65461 31.491C6.36901 31.7886 7.90199 31.744 8.61639 31.4166C9.82195 30.8808 10.7596 29.5413 10.7745 28.3804V27.8297H10.075H9.36056L8.40803 24.7339C7.88711 23.0372 7.42573 21.5638 7.39596 21.4596C7.33643 21.3257 7.78293 21.281 9.27126 21.281H11.221V21.6531V22.0252H12.8581H14.4953V26.4902V30.9701L15.6562 30.9254L16.8022 30.8808L16.8469 26.4455L16.8766 22.0252H18.5138H20.151V21.6531V21.281H22.3686H24.6011L24.3927 21.9805C24.2737 22.3824 23.8123 23.8261 23.3807 25.2251L22.5918 27.7553L21.8774 27.7999L21.163 27.8446L21.2226 28.5887C21.3268 29.5859 21.9816 30.6129 22.8895 31.1784C23.8867 31.7886 25.4048 31.8928 26.4466 31.4017C27.3694 30.9701 28.1433 30.0473 28.4261 29.0501C28.7387 28.0083 28.6494 27.8297 27.8308 27.8297H27.1759L26.6252 26.0734C26.3276 25.1209 25.8364 23.5582 25.5387 22.6205L24.9881 20.9089L22.577 20.8643L20.151 20.8345V20.4624V20.0903H15.686H11.221V20.4624ZM8.06571 24.9274L8.94383 27.7553L7.15783 27.7999C6.17553 27.8148 5.34206 27.7999 5.29741 27.7701C5.23788 27.7106 6.65179 22.9479 7.00899 22.0252C7.11318 21.7573 7.00899 21.5043 8.06571 24.9274ZM25.8662 24.9423C26.3276 26.4158 26.6996 27.6808 26.6996 27.7255C26.6996 27.785 25.8513 27.8297 24.8243 27.8297C23.3062 27.8297 22.9639 27.785 23.0235 27.6213C23.0681 27.5171 23.4848 26.1776 23.9611 24.6446C24.4374 23.1265 24.869 21.9508 24.9285 22.0549C24.9881 22.1591 25.4048 23.454 25.8662 24.9423Z" fill="white"/>
<path d="M36.5928 12.1761H40.0384V24.949H47.6758V27.8459H36.5928V12.1761Z" fill="white"/>
<path d="M49.6021 12.1761H61.3215V15.073H53.0477V18.4308H60.6412V21.1083H53.0477V24.949H61.4971V27.8459H49.6021V12.1761Z" fill="white"/>
<path d="M75.1575 26.0682C74.543 26.8583 73.8626 27.4143 73.1164 27.7362C72.3702 28.0434 71.6167 28.197 70.8559 28.197C69.6562 28.197 68.5735 27.9922 67.6079 27.5825C66.6568 27.1582 65.8521 26.5803 65.1937 25.8488C64.5353 25.1172 64.0306 24.2613 63.6794 23.281C63.3283 22.2861 63.1527 21.218 63.1527 20.0768C63.1527 18.9063 63.3283 17.8236 63.6794 16.8287C64.0306 15.8192 64.5353 14.9413 65.1937 14.1951C65.8521 13.449 66.6568 12.8637 67.6079 12.4394C68.5735 12.0151 69.6562 11.803 70.8559 11.803C71.6606 11.803 72.4361 11.9273 73.1823 12.1761C73.9431 12.4102 74.6234 12.7613 75.2233 13.2295C75.8378 13.6977 76.3426 14.2756 76.7376 14.9633C77.1326 15.6509 77.3741 16.441 77.4618 17.3335H74.1699C73.965 16.4556 73.57 15.7972 72.9847 15.3583C72.3995 14.9194 71.6899 14.6999 70.8559 14.6999C70.0805 14.6999 69.4221 14.8535 68.8807 15.1608C68.3394 15.4534 67.9005 15.8558 67.564 16.3679C67.2274 16.8653 66.9787 17.4359 66.8178 18.0797C66.6715 18.7235 66.5983 19.3892 66.5983 20.0768C66.5983 20.7352 66.6715 21.379 66.8178 22.0081C66.9787 22.6226 67.2274 23.1786 67.564 23.6761C67.9005 24.1735 68.3394 24.5759 68.8807 24.8831C69.4221 25.1757 70.0805 25.322 70.8559 25.322C71.9972 25.322 72.875 25.0367 73.4895 24.4661C74.1187 23.8809 74.4844 23.0396 74.5868 21.9423H71.1193V19.3745H77.7033V27.8459H75.5086L75.1575 26.0682Z" fill="white"/>
<path d="M84.4362 21.7886H88.4963L86.5211 16.0387H86.4772L84.4362 21.7886ZM84.7654 12.1761H88.2988L94.1585 27.8459H90.5812L89.3961 24.3564H83.5364L82.3074 27.8459H78.8398L84.7654 12.1761Z" fill="white"/>
<path d="M95.5098 12.1761H98.9554V24.949H106.593V27.8459H95.5098V12.1761Z" fill="white"/>
</svg>
