<svg width="21" height="20" viewBox="0 0 21 20" fill="none" xmlns="http://www.w3.org/2000/svg">
<g id="fi_9538385">
<g id="Group">
<path id="XMLID_27_" d="M8.43925 10.1514C8.46955 10.1514 8.46955 10.1817 8.46955 10.1817L11.7423 6.909L11.712 6.8787L7.9544 3.12112C7.92409 3.12112 7.92409 3.09082 7.92409 3.09082L4.65137 6.36355L4.68167 6.39385L8.43925 10.1514Z" fill="#2B4C65"/>
<path id="XMLID_783_" d="M5.86353 12.7272C6.19687 13.0605 6.77262 13.0605 7.13626 12.7272C7.25747 12.4848 8.92414 11.4848 8.01505 10.5757L4.25747 6.81812C3.89384 6.48478 3.34838 6.48478 2.98474 6.81812L2.10596 7.6969C1.77262 8.03024 1.77262 8.60599 2.10596 8.96963L5.86353 12.7272Z" fill="#2B4C65"/>
<path id="XMLID_784_" d="M12.1365 6.4545C12.4698 6.78783 13.0456 6.78783 13.4092 6.4545L14.288 5.57571C14.6516 5.21208 14.6213 4.66662 14.288 4.30299L10.5304 0.54541C10.1971 0.212077 9.62133 0.212077 9.25769 0.54541L8.37891 1.4545C8.04557 1.78783 8.04557 2.36359 8.37891 2.72723L12.1365 6.4545Z" fill="#2B4C65"/>
<path id="XMLID_818_" d="M19.409 15.4545L11.4696 8.06055L9.62109 9.90903L17.015 17.8787C17.6514 18.5757 18.7726 18.6363 19.4696 17.909C20.1665 17.2121 20.1362 16.1212 19.409 15.4545Z" fill="#2B4C65"/>
<path id="XMLID_819_" d="M11.6818 17.2121C11.803 17.0303 11.8636 16.8181 11.8636 16.606C11.8636 16.0303 11.409 15.5454 10.8636 15.5454H3.34844C2.80299 15.5454 2.34844 16 2.34844 16.606C2.34844 16.8484 2.40905 17.0606 2.53026 17.2121C1.65147 17.5454 1.04541 18.3939 1.04541 19.3939C1.04541 19.5454 1.16662 19.6969 1.34844 19.6969H12.8939C13.0454 19.6969 13.1969 19.5454 13.1969 19.3939C13.1666 18.3939 12.5606 17.5454 11.6818 17.2121Z" fill="#2B4C65"/>
</g>
</g>
</svg>
