<svg width="15" height="14" viewBox="0 0 15 14" fill="none" xmlns="http://www.w3.org/2000/svg">
<g id="fi_3759325">
<path id="Vector" d="M7.49983 10.5001C7.3454 10.4987 7.19753 10.4375 7.08741 10.3292L1.25408 4.49584C1.14782 4.38582 1.08903 4.23847 1.09035 4.08552C1.09168 3.93257 1.15303 3.78627 1.26119 3.67811C1.36934 3.56996 1.51565 3.50861 1.6686 3.50728C1.82154 3.50595 1.9689 3.56475 2.07891 3.671L7.49983 9.09192L12.9207 3.671C12.9746 3.61529 13.0389 3.57085 13.1101 3.54028C13.1813 3.50971 13.2578 3.49362 13.3353 3.49294C13.4127 3.49227 13.4895 3.50703 13.5612 3.53636C13.6329 3.56569 13.698 3.609 13.7528 3.66377C13.8076 3.71854 13.8509 3.78368 13.8802 3.85536C13.9096 3.92705 13.9243 4.00387 13.9236 4.08132C13.923 4.15878 13.9069 4.23532 13.8763 4.30649C13.8457 4.37766 13.8013 4.44203 13.7456 4.49584L7.91225 10.3292C7.80213 10.4375 7.65426 10.4987 7.49983 10.5001Z" fill="#2B4C65"/>
</g>
</svg>
