<svg width="28" height="28" viewBox="0 0 28 28" fill="none" xmlns="http://www.w3.org/2000/svg">
<g id="fi_2258843">
<path id="Vector" d="M18.0469 8.20312C16.9915 8.20312 16.1328 7.34448 16.1328 6.28906V0H6.34375C4.68524 0 3.33594 1.3493 3.33594 3.00781V24.9922C3.33594 26.6507 4.68524 28 6.34375 28H21.6562C23.3148 28 24.6641 26.6507 24.6641 24.9922V8.20312H18.0469ZM7.82031 19.6875H11.7972C12.2502 19.6875 12.6175 20.0548 12.6175 20.5078C12.6175 20.9608 12.2502 21.3281 11.7972 21.3281H7.82031C7.36728 21.3281 7 20.9608 7 20.5078C7 20.0548 7.36728 19.6875 7.82031 19.6875ZM7 16.1328C7 15.6798 7.36728 15.3125 7.82031 15.3125H19.8516C20.3046 15.3125 20.6719 15.6798 20.6719 16.1328C20.6719 16.5858 20.3046 16.9531 19.8516 16.9531H7.82031C7.36728 16.9531 7 16.5858 7 16.1328ZM19.8516 10.9375C20.3046 10.9375 20.6719 11.3048 20.6719 11.7578C20.6719 12.2108 20.3046 12.5781 19.8516 12.5781H7.82031C7.36728 12.5781 7 12.2108 7 11.7578C7 11.3048 7.36728 10.9375 7.82031 10.9375H19.8516Z" fill="#2B4C65"/>
<path id="Vector_2" d="M17.7734 6.28906C17.7734 6.43984 17.8961 6.5625 18.0469 6.5625H24.2984C24.1484 6.28545 23.9553 6.03099 23.7234 5.81153L18.4503 0.822827C18.2456 0.629233 18.0177 0.467741 17.7735 0.34021V6.28906H17.7734Z" fill="#2B4C65"/>
</g>
</svg>
