<svg width="154" height="56" viewBox="0 0 154 56" fill="none" xmlns="http://www.w3.org/2000/svg">
<path d="M21.9811 12.2281C21.5226 13.4783 20.4391 15.0411 19.3556 15.9996C18.4388 16.7913 16.4593 17.9165 15.9384 17.9165C15.3967 17.9165 15.8134 18.2708 16.8761 18.7292C18.8972 19.6043 20.8559 21.688 21.7102 23.8758L22.1061 24.876L22.7937 23.4591C23.8564 21.2296 25.7942 19.5001 28.2946 18.5416C28.878 18.3333 28.878 18.3333 27.3778 17.5831C25.0649 16.4163 23.523 14.666 22.4603 11.9156C22.2728 11.4572 22.2519 11.4572 21.9811 12.2281Z" fill="#2B4C65"/>
<path d="M15.7098 28.6474V29.1683H12.7718H9.85466L9.58378 29.835C9.43792 30.2101 8.70864 32.4188 8.00019 34.7317L6.68748 38.9407L5.72899 39.0032L4.77051 39.0657L4.81218 39.9408C4.87469 41.5661 6.24991 43.3997 7.91685 44.0873C8.91701 44.5041 11.0632 44.4415 12.0633 43.9831C13.7511 43.233 15.0638 41.3577 15.0847 39.7325V38.9615H14.1053H13.1052L11.7716 34.6275C11.0423 32.2521 10.3964 30.1893 10.3547 30.0434C10.2714 29.8559 10.8965 29.7934 12.9802 29.7934H15.7098V30.3143V30.8352H18.0018H20.2938V37.0862V43.358L21.9191 43.2955L23.5235 43.233L23.586 37.0237L23.6277 30.8352H25.9197H28.2118V30.3143V29.7934H31.3164H34.4419L34.1502 30.7727C33.9835 31.3353 33.3376 33.3564 32.7333 35.3151L31.629 38.8573L30.6288 38.9198L29.6287 38.9823L29.712 40.0242C29.8579 41.4202 30.7747 42.858 32.0457 43.6498C33.4418 44.5041 35.5671 44.6499 37.0257 43.9623C38.3175 43.358 39.4011 42.0662 39.797 40.6701C40.2345 39.2115 40.1095 38.9615 38.9635 38.9615H38.0467L37.2757 36.5028C36.859 35.1692 36.1714 32.9814 35.7546 31.6687L34.9837 29.2725L31.6081 29.2099L28.2118 29.1683V28.6474V28.1264H21.9608H15.7098V28.6474ZM11.2924 34.8984L12.5217 38.8573L10.0213 38.9198C8.64613 38.9407 7.47928 38.9198 7.41677 38.8782C7.33342 38.7948 9.3129 32.1271 9.81298 30.8352C9.95884 30.4601 9.81298 30.1059 11.2924 34.8984ZM36.213 34.9192C36.859 36.982 37.3799 38.7531 37.3799 38.8156C37.3799 38.899 36.1922 38.9615 34.7545 38.9615C32.6291 38.9615 32.1499 38.899 32.2332 38.6698C32.2958 38.5239 32.8792 36.6486 33.546 34.5025C34.2127 32.3771 34.817 30.731 34.9003 30.8769C34.9837 31.0227 35.5671 32.8355 36.213 34.9192Z" fill="#2B4C65"/>
<path d="M51.2295 17.0465H56.0533V34.9285H66.7457V38.9842H51.2295V17.0465Z" fill="#2B4C65"/>
<path d="M69.4425 17.0465H85.8498V21.1022H74.2664V25.8032H84.8973V29.5516H74.2664V34.9285H86.0956V38.9842H69.4425V17.0465Z" fill="#2B4C65"/>
<path d="M105.22 36.4955C104.36 37.6016 103.407 38.38 102.363 38.8306C101.318 39.2608 100.263 39.4759 99.1979 39.4759C97.5183 39.4759 96.0025 39.1891 94.6506 38.6155C93.3192 38.0215 92.1926 37.2124 91.2708 36.1883C90.3491 35.1641 89.6424 33.9658 89.1508 32.5934C88.6592 31.2005 88.4134 29.7053 88.4134 28.1075C88.4134 26.4689 88.6592 24.9531 89.1508 23.5602C89.6424 22.1469 90.3491 20.9179 91.2708 19.8732C92.1926 18.8286 93.3192 18.0092 94.6506 17.4152C96.0025 16.8212 97.5183 16.5242 99.1979 16.5242C100.325 16.5242 101.41 16.6983 102.455 17.0465C103.52 17.3742 104.472 17.8658 105.312 18.5213C106.173 19.1768 106.879 19.9859 107.432 20.9486C107.985 21.9113 108.323 23.0174 108.446 24.2669H103.837C103.551 23.0379 102.998 22.1161 102.178 21.5016C101.359 20.8871 100.365 20.5799 99.1979 20.5799C98.1123 20.5799 97.1905 20.795 96.4327 21.2251C95.6748 21.6348 95.0603 22.1981 94.5891 22.915C94.118 23.6114 93.7698 24.4103 93.5445 25.3116C93.3397 26.2128 93.2372 27.1448 93.2372 28.1075C93.2372 29.0293 93.3397 29.9306 93.5445 30.8114C93.7698 31.6717 94.118 32.45 94.5891 33.1465C95.0603 33.8429 95.6748 34.4062 96.4327 34.8364C97.1905 35.246 98.1123 35.4509 99.1979 35.4509C100.796 35.4509 102.025 35.0514 102.885 34.2526C103.766 33.4332 104.278 32.2554 104.421 30.7192H99.5666V27.1243H108.784V38.9842H105.712L105.22 36.4955Z" fill="#2B4C65"/>
<path d="M118.21 30.5041H123.894L121.129 22.4541H121.068L118.21 30.5041ZM118.671 17.0465H123.618L131.822 38.9842H126.813L125.154 34.0989H116.951L115.23 38.9842H110.375L118.671 17.0465Z" fill="#2B4C65"/>
<path d="M133.713 17.0465H138.537V34.9285H149.229V38.9842H133.713V17.0465Z" fill="#2B4C65"/>
</svg>
