<svg width="32" height="32" viewBox="0 0 32 32" fill="none" xmlns="http://www.w3.org/2000/svg">
<g id="fi_9153712" clip-path="url(#clip0_1022_7489)">
<path id="Vector" d="M0.125 23.125C0.125794 23.7546 0.376271 24.3583 0.821498 24.8035C1.26673 25.2487 1.87035 25.4992 2.5 25.5H29.5C30.1296 25.4992 30.7333 25.2487 31.1785 24.8035C31.6237 24.3583 31.8742 23.7546 31.875 23.125V22.875H0.125V23.125Z" fill="#2B4C65"/>
<path id="Vector_2" d="M11.5 11.75C12.1213 11.75 12.625 11.2463 12.625 10.625C12.625 10.0037 12.1213 9.5 11.5 9.5C10.8787 9.5 10.375 10.0037 10.375 10.625C10.375 11.2463 10.8787 11.75 11.5 11.75Z" fill="#2B4C65"/>
<path id="Vector_3" d="M16.4533 8.7755L17.2418 8.3205L16.3668 6.8045L15.5728 7.263C15.4142 7.35473 15.2308 7.39442 15.0485 7.37648C14.8661 7.35854 14.694 7.28388 14.5563 7.163C14.0949 6.75378 13.5559 6.44158 12.9713 6.245C12.7975 6.18672 12.6464 6.07527 12.5393 5.92642C12.4323 5.77757 12.3747 5.59884 12.3748 5.4155V4.5H10.6248V5.414C10.6249 5.59734 10.5673 5.77607 10.4603 5.92492C10.3533 6.07377 10.2021 6.18522 10.0283 6.2435C9.44375 6.44008 8.90472 6.75228 8.44331 7.1615C8.30562 7.28238 8.13349 7.35704 7.95115 7.37498C7.7688 7.39292 7.58542 7.35323 7.42681 7.2615L6.63281 6.803L5.75781 8.319L6.54631 8.774C6.70505 8.8656 6.83099 9.00476 6.90635 9.17181C6.98171 9.33887 7.00269 9.52538 6.96631 9.705C6.84432 10.3113 6.84432 10.9357 6.96631 11.542C7.00269 11.7216 6.98171 11.9081 6.90635 12.0752C6.83099 12.2422 6.70505 12.3814 6.54631 12.473L5.75781 12.928L6.63281 14.444L7.42681 13.9855C7.58535 13.8935 7.76878 13.8537 7.95118 13.8717C8.13358 13.8896 8.30573 13.9644 8.44331 14.0855C8.90472 14.4947 9.44375 14.8069 10.0283 15.0035C10.2021 15.0618 10.3533 15.1732 10.4603 15.3221C10.5673 15.4709 10.6249 15.6497 10.6248 15.833V16.75H12.3748V15.836C12.3747 15.6527 12.4323 15.4739 12.5393 15.3251C12.6464 15.1762 12.7975 15.0648 12.9713 15.0065C13.5559 14.8099 14.0949 14.4977 14.5563 14.0885C14.6939 13.9674 14.866 13.8926 15.0484 13.8747C15.2308 13.8567 15.4143 13.8965 15.5728 13.9885L16.3668 14.447L17.2418 12.931L16.4533 12.476C16.2946 12.3845 16.1686 12.2455 16.0932 12.0785C16.0177 11.9115 15.9966 11.7251 16.0328 11.5455C16.1555 10.939 16.1555 10.314 16.0328 9.7075C15.9963 9.52768 16.0172 9.34091 16.0927 9.17364C16.1681 9.00638 16.2943 8.86709 16.4533 8.7755ZM11.4998 13.5C10.9312 13.5 10.3753 13.3314 9.90255 13.0155C9.42976 12.6996 9.06126 12.2506 8.84366 11.7252C8.62606 11.1999 8.56912 10.6218 8.68006 10.0641C8.79099 9.50642 9.0648 8.99414 9.46688 8.59207C9.86896 8.18999 10.3812 7.91618 10.9389 7.80524C11.4966 7.69431 12.0747 7.75124 12.6 7.96885C13.1254 8.18645 13.5744 8.55494 13.8903 9.02774C14.2062 9.50053 14.3748 10.0564 14.3748 10.625C14.3739 11.3872 14.0707 12.1179 13.5317 12.6569C12.9928 13.1959 12.262 13.4991 11.4998 13.5Z" fill="#2B4C65"/>
<path id="Vector_4" d="M29.5 0.125H2.5C1.87035 0.125794 1.26673 0.376271 0.821498 0.821498C0.376271 1.26673 0.125794 1.87035 0.125 2.5V21.125H31.875V2.5C31.8742 1.87035 31.6237 1.26673 31.1785 0.821498C30.7333 0.376271 30.1296 0.125794 29.5 0.125ZM17.875 10.625C17.875 10.835 17.8645 11.046 17.8435 11.2565L18.8745 11.8515C19.0755 11.9676 19.2221 12.1587 19.2822 12.3829C19.3423 12.6071 19.3109 12.8459 19.195 13.047L17.445 16.078C17.3292 16.2791 17.1382 16.426 16.9141 16.4863C16.6901 16.5467 16.4512 16.5157 16.25 16.4L15.2145 15.8C14.8735 16.0461 14.5087 16.2573 14.1255 16.4305V17.625C14.1254 17.8571 14.0331 18.0797 13.8689 18.2437C13.7047 18.4078 13.4821 18.5 13.25 18.5H9.75C9.51794 18.5 9.29538 18.4078 9.13128 18.2437C8.96719 18.0796 8.875 17.8571 8.875 17.625V16.431C8.49181 16.2576 8.12698 16.0462 7.786 15.8L6.75 16.4C6.54902 16.5159 6.31023 16.5473 6.08614 16.4872C5.86204 16.4271 5.67099 16.2804 5.555 16.0795L3.805 13.0485C3.7471 12.9488 3.70944 12.8387 3.69419 12.7245C3.67893 12.6103 3.68639 12.4941 3.71612 12.3828C3.74585 12.2714 3.79727 12.1671 3.86744 12.0756C3.9376 11.9842 4.02513 11.9075 4.125 11.85L5.1565 11.255C5.1355 11.0445 5.125 10.8335 5.125 10.6235C5.125 10.4135 5.1355 10.2025 5.1565 9.992L4.125 9.4C3.92411 9.28383 3.77756 9.09265 3.71756 8.86848C3.65756 8.64431 3.68901 8.40549 3.805 8.2045L5.555 5.1735C5.61218 5.07375 5.68847 4.98626 5.77949 4.91601C5.8705 4.84576 5.97448 4.79414 6.08546 4.76409C6.19644 4.73405 6.31225 4.72617 6.42628 4.74091C6.5403 4.75565 6.65031 4.79272 6.75 4.85L7.786 5.45C8.12698 5.20378 8.49181 4.99238 8.875 4.819V3.625C8.875 3.39294 8.96719 3.17038 9.13128 3.00628C9.29538 2.84219 9.51794 2.75 9.75 2.75H13.25C13.482 2.75013 13.7045 2.84236 13.8686 3.00643C14.0326 3.17049 14.1249 3.39298 14.125 3.625V4.819C14.5082 4.99238 14.873 5.20378 15.214 5.45L16.25 4.85C16.4511 4.73405 16.6899 4.70268 16.9141 4.76277C17.1383 4.82287 17.3294 4.96953 17.4455 5.1705L19.1955 8.2015C19.3114 8.40255 19.3428 8.64142 19.2827 8.86559C19.2226 9.08977 19.076 9.28091 18.875 9.397L17.844 9.992C17.8645 10.204 17.875 10.415 17.875 10.625ZM27.5 16.75H22C21.7679 16.75 21.5454 16.6578 21.3813 16.4937C21.2172 16.3296 21.125 16.1071 21.125 15.875C21.125 15.6429 21.2172 15.4204 21.3813 15.2563C21.5454 15.0922 21.7679 15 22 15H27.5C27.7321 15 27.9546 15.0922 28.1187 15.2563C28.2828 15.4204 28.375 15.6429 28.375 15.875C28.375 16.1071 28.2828 16.3296 28.1187 16.4937C27.9546 16.6578 27.7321 16.75 27.5 16.75ZM27.5 13.25H22C21.7679 13.25 21.5454 13.1578 21.3813 12.9937C21.2172 12.8296 21.125 12.6071 21.125 12.375C21.125 12.1429 21.2172 11.9204 21.3813 11.7563C21.5454 11.5922 21.7679 11.5 22 11.5H27.5C27.7321 11.5 27.9546 11.5922 28.1187 11.7563C28.2828 11.9204 28.375 12.1429 28.375 12.375C28.375 12.6071 28.2828 12.8296 28.1187 12.9937C27.9546 13.1578 27.7321 13.25 27.5 13.25ZM27.5 9.75H22C21.7679 9.75 21.5454 9.65781 21.3813 9.49372C21.2172 9.32962 21.125 9.10706 21.125 8.875C21.125 8.64294 21.2172 8.42038 21.3813 8.25628C21.5454 8.09219 21.7679 8 22 8H27.5C27.7321 8 27.9546 8.09219 28.1187 8.25628C28.2828 8.42038 28.375 8.64294 28.375 8.875C28.375 9.10706 28.2828 9.32962 28.1187 9.49372C27.9546 9.65781 27.7321 9.75 27.5 9.75ZM27.5 6.25H22C21.7679 6.25 21.5454 6.15781 21.3813 5.99372C21.2172 5.82962 21.125 5.60706 21.125 5.375C21.125 5.14294 21.2172 4.92038 21.3813 4.75628C21.5454 4.59219 21.7679 4.5 22 4.5H27.5C27.7321 4.5 27.9546 4.59219 28.1187 4.75628C28.2828 4.92038 28.375 5.14294 28.375 5.375C28.375 5.60706 28.2828 5.82962 28.1187 5.99372C27.9546 6.15781 27.7321 6.25 27.5 6.25Z" fill="#2B4C65"/>
<path id="Vector_5" d="M21.5 30.125H20.375V27.25H11.625V30.125H10.5C10.2679 30.125 10.0454 30.2172 9.88128 30.3813C9.71719 30.5454 9.625 30.7679 9.625 31C9.625 31.2321 9.71719 31.4546 9.88128 31.6187C10.0454 31.7828 10.2679 31.875 10.5 31.875H21.5C21.7321 31.875 21.9546 31.7828 22.1187 31.6187C22.2828 31.4546 22.375 31.2321 22.375 31C22.375 30.7679 22.2828 30.5454 22.1187 30.3813C21.9546 30.2172 21.7321 30.125 21.5 30.125Z" fill="#2B4C65"/>
</g>
<defs>
<clipPath id="clip0_1022_7489">
<rect width="32" height="32" fill="white"/>
</clipPath>
</defs>
</svg>
