<svg width="32" height="32" viewBox="0 0 32 32" fill="none" xmlns="http://www.w3.org/2000/svg">
<g id="fi_7542260">
<g id="Icon">
<path id="Vector" d="M15.3324 16.3254C19.3824 16.3254 22.6657 13.0421 22.6657 8.99202C22.6657 4.94194 19.3824 1.65869 15.3324 1.65869C11.2823 1.65869 7.99902 4.94194 7.99902 8.99202C7.99902 13.0421 11.2823 16.3254 15.3324 16.3254Z" fill="#2B4C65"/>
<path id="Vector_2" fill-rule="evenodd" clip-rule="evenodd" d="M20.8617 16.876L19.9257 19.7573H16.8963C16.0737 19.7573 15.3457 20.2853 15.0923 21.068C14.8377 21.8493 15.1163 22.7053 15.7817 23.188L18.2323 24.9693L17.2963 27.8506C17.0417 28.632 17.3203 29.488 17.9843 29.9706C18.6497 30.4546 19.5497 30.4546 20.215 29.9706L22.6657 28.1906L25.1163 29.9706C25.7817 30.4546 26.6817 30.4546 27.347 29.9706C28.011 29.488 28.2897 28.632 28.035 27.8506L27.099 24.9693L29.5497 23.188C30.215 22.7053 30.4937 21.8493 30.239 21.068C29.9857 20.2853 29.2577 19.7573 28.435 19.7573H25.4057L24.4697 16.876C24.2163 16.0946 23.487 15.5653 22.6657 15.5653C21.8443 15.5653 21.115 16.0946 20.8617 16.876Z" fill="#2B4C65"/>
<path id="Vector_3" fill-rule="evenodd" clip-rule="evenodd" d="M15.9207 29.0081C15.8287 28.4961 15.8593 27.9574 16.0273 27.4387L16.6647 25.4787L14.998 24.2667C13.866 23.4441 13.3913 21.9867 13.8247 20.6561C14.2567 19.3241 15.4967 18.4241 16.8967 18.4241H18.9567L19.1727 17.7614C17.9567 17.5761 16.6673 17.4747 15.3327 17.4747C10.9033 17.4747 6.98202 18.5827 4.54735 20.2427C2.69002 21.5094 1.66602 23.1187 1.66602 24.8081V26.7414C1.66602 27.3427 1.90468 27.9201 2.33002 28.3441C2.75535 28.7694 3.33135 29.0081 3.93268 29.0081H15.9207Z" fill="#2B4C65"/>
</g>
</g>
</svg>
