<svg width="73" height="72" viewBox="0 0 73 72" fill="none" xmlns="http://www.w3.org/2000/svg">
<g id="fi_2956800">
<path id="Vector" d="M53.9382 24.8491C52.9658 20.962 50.7225 17.5111 47.5647 15.0445C44.4069 12.5779 40.5156 11.2369 36.5086 11.2346C32.5017 11.2323 28.6088 12.5687 25.4481 15.0316C22.2874 17.4946 20.0402 20.9428 19.0632 24.8289C14.4549 25.2614 10.1902 27.4525 7.1551 30.9471C4.12 34.4418 2.54776 38.9713 2.76496 43.5948C2.98217 48.2184 4.97212 52.5805 8.32146 55.7752C11.6708 58.9699 16.1221 60.7516 20.7507 60.7502H27.5007C28.0975 60.7502 28.6698 60.5131 29.0917 60.0911C29.5137 59.6692 29.7507 59.0969 29.7507 58.5002C29.7507 57.9034 29.5137 57.3311 29.0917 56.9092C28.6698 56.4872 28.0975 56.2502 27.5007 56.2502H20.7507C18.9779 56.2553 17.2214 55.9113 15.5815 55.2376C13.9416 54.5639 12.4505 53.5739 11.1933 52.3239C8.65414 49.7996 7.22181 46.3699 7.21137 42.7895C7.20092 39.2091 8.61322 35.7712 11.1376 33.232C13.6619 30.6929 17.0916 29.2606 20.672 29.2501C21.2493 29.2936 21.8222 29.1211 22.2795 28.766C22.7369 28.411 23.046 27.8987 23.147 27.3286C23.6051 24.1158 25.2071 21.1761 27.6585 19.0494C30.11 16.9227 33.2464 15.7519 36.4917 15.7519C39.7371 15.7519 42.8735 16.9227 45.325 19.0494C47.7764 21.1761 49.3783 24.1158 49.8365 27.3286C49.9542 27.8789 50.2592 28.3713 50.6995 28.7218C51.1398 29.0722 51.6881 29.2589 52.2507 29.2501C55.8312 29.2501 59.2649 30.6725 61.7967 33.2042C64.3284 35.7359 65.7507 39.1697 65.7507 42.7501C65.7507 46.3306 64.3284 49.7644 61.7967 52.2961C59.2649 54.8278 55.8312 56.2501 52.2507 56.2502H45.5007C44.904 56.2502 44.3317 56.4872 43.9097 56.9092C43.4878 57.3311 43.2507 57.9034 43.2507 58.5002C43.2507 59.0969 43.4878 59.6692 43.9097 60.0911C44.3317 60.5131 44.904 60.7502 45.5007 60.7502H52.2507C56.8455 60.7021 61.2479 58.8986 64.5559 55.7092C67.8638 52.5199 69.8268 48.1862 70.0425 43.5963C70.2583 39.0063 68.7104 34.5076 65.7163 31.0221C62.7221 27.5365 58.5082 25.328 53.9382 24.8491Z" fill="#2B4C65"/>
<path id="Vector_2" d="M46.1599 44.3408C46.5843 44.7506 47.1526 44.9774 47.7426 44.9723C48.3325 44.9671 48.8968 44.7305 49.314 44.3133C49.7312 43.8962 49.9678 43.3319 49.9729 42.7419C49.9781 42.152 49.7513 41.5836 49.3414 41.1593L38.0914 29.9093C37.6695 29.4874 37.0973 29.2505 36.5007 29.2505C35.904 29.2505 35.3319 29.4874 34.9099 29.9093L23.6599 41.1593C23.2501 41.5836 23.0233 42.152 23.0284 42.7419C23.0335 43.3319 23.2702 43.8962 23.6873 44.3133C24.1045 44.7305 24.6688 44.9671 25.2588 44.9723C25.8487 44.9774 26.4171 44.7506 26.8414 44.3408L34.2507 36.9315V65.25C34.2507 65.8467 34.4877 66.419 34.9097 66.841C35.3316 67.263 35.9039 67.5 36.5007 67.5C37.0974 67.5 37.6697 67.263 38.0917 66.841C38.5136 66.419 38.7507 65.8467 38.7507 65.25V36.9315L46.1599 44.3408Z" fill="#2B4C65"/>
</g>
</svg>
