<svg width="32" height="32" viewBox="0 0 32 32" fill="none" xmlns="http://www.w3.org/2000/svg">
<g id="fi_3160746" clip-path="url(#clip0_728_7841)">
<g id="Group">
<path id="Vector" d="M0 15.4375C0 18.0222 2.10281 20.125 4.6875 20.125C7.27219 20.125 9.375 18.0222 9.375 15.4375C9.375 15.3018 9.34556 15.1678 9.28869 15.0446L6.14444 8.232C7.61762 8.14713 9.07538 7.7605 10.3946 7.10081L10.4992 7.04856C11.6422 6.47706 12.8614 6.0895 14.125 5.89475V21.6875H17.875V5.89475C19.1387 6.08956 20.3579 6.47713 21.5007 7.0485L21.6053 7.10075C22.9247 7.76044 24.3824 8.14706 25.8556 8.232L22.7113 15.0446C22.6544 15.1678 22.625 15.3018 22.625 15.4375C22.625 18.0222 24.7278 20.125 27.3125 20.125C29.8972 20.125 32 18.0222 32 15.4375C32 15.3018 31.9706 15.1678 31.9137 15.0446L28.6298 7.9295C29.763 7.58288 30.8013 6.96206 31.6629 6.10038C32.029 5.73431 32.029 5.14069 31.6629 4.77456C31.2969 4.4085 30.7033 4.4085 30.3371 4.77456C29.3051 5.80662 27.9329 6.375 26.4734 6.375C25.0818 6.375 23.6884 6.04606 22.4439 5.42375L22.3394 5.37144C20.9759 4.68981 19.5186 4.23462 18.0078 4.01844C17.9638 4.01213 17.9194 4.009 17.875 4.009V1.875C17.875 0.839437 17.0356 0 16 0C14.9644 0 14.125 0.839437 14.125 1.875V4.009C14.0806 4.009 14.0362 4.01219 13.9922 4.01844C12.4814 4.23456 11.0241 4.68981 9.66075 5.37144L9.55612 5.42375C8.31156 6.04606 6.91819 6.375 5.52663 6.375C4.06706 6.375 2.69494 5.80662 1.66288 4.77462C1.29681 4.40856 0.703187 4.40856 0.337063 4.77462C-0.0290625 5.14069 -0.0290625 5.73431 0.337063 6.10044C1.19875 6.96213 2.237 7.58294 3.37019 7.92956L0.0863125 15.0446C0.0294375 15.1678 0 15.3018 0 15.4375ZM25.0278 14.5L27.3125 9.54969L29.5972 14.5H25.0278ZM4.6875 9.54969L6.97225 14.5H2.40275L4.6875 9.54969Z" fill="#2B4C65"/>
<path id="Vector_2" d="M31.0625 30.125H25.5312C25.5312 29.0894 24.6918 28.25 23.6562 28.25H8.34375C7.30819 28.25 6.46875 29.0894 6.46875 30.125H0.9375C0.41975 30.125 0 30.5447 0 31.0625C0 31.5803 0.41975 32 0.9375 32H31.0625C31.5802 32 32 31.5803 32 31.0625C32 30.5447 31.5802 30.125 31.0625 30.125Z" fill="#2B4C65"/>
<path id="Vector_3" d="M19.9062 23.5625H12.0938C11.0582 23.5625 10.2188 24.4019 10.2188 25.4375V26.375H21.7812V25.4375C21.7812 24.4019 20.9418 23.5625 19.9062 23.5625Z" fill="#2B4C65"/>
</g>
</g>
<defs>
<clipPath id="clip0_728_7841">
<rect width="32" height="32" fill="#2B4C65"/>
</clipPath>
</defs>
</svg>
