<svg width="32" height="32" viewBox="0 0 32 32" fill="none" xmlns="http://www.w3.org/2000/svg">
<g id="fi_1423474" clip-path="url(#clip0_727_7775)">
<path id="Vector" d="M31.0625 1.875H12.1875C11.6694 1.875 11.25 2.29419 11.25 2.8125C11.25 3.33057 11.6694 3.75 12.1875 3.75H31.0625C31.5806 3.75 32 3.33057 32 2.8125C32 2.29419 31.5806 1.875 31.0625 1.875Z" fill="#2B4C65"/>
<path id="Vector_2" d="M12.1875 7.5H21.625C22.1431 7.5 22.5625 7.08057 22.5625 6.5625C22.5625 6.04419 22.1431 5.625 21.625 5.625H12.1875C11.6694 5.625 11.25 6.04419 11.25 6.5625C11.25 7.08057 11.6694 7.5 12.1875 7.5Z" fill="#2B4C65"/>
<path id="Vector_3" d="M12.1875 18.8127H21.625C22.1431 18.8127 22.5625 18.3933 22.5625 17.8752C22.5625 17.3569 22.1431 16.9377 21.625 16.9377H12.1875C11.6694 16.9377 11.25 17.3569 11.25 17.8752C11.25 18.3933 11.6694 18.8127 12.1875 18.8127Z" fill="#2B4C65"/>
<path id="Vector_4" d="M21.625 30.1252C22.1431 30.1252 22.5625 29.7058 22.5625 29.1877C22.5625 28.6694 22.1431 28.2502 21.625 28.2502H12.1875C11.6694 28.2502 11.25 28.6694 11.25 29.1877C11.25 29.7058 11.6694 30.1252 12.1875 30.1252H21.625Z" fill="#2B4C65"/>
<path id="Vector_5" d="M31.0625 13.1877H12.1875C11.6694 13.1877 11.25 13.6069 11.25 14.1252C11.25 14.6433 11.6694 15.0627 12.1875 15.0627H31.0625C31.5806 15.0627 32 14.6433 32 14.1252C32 13.6069 31.5806 13.1877 31.0625 13.1877Z" fill="#2B4C65"/>
<path id="Vector_6" d="M31.0625 24.5002H12.1875C11.6694 24.5002 11.25 24.9194 11.25 25.4377C11.25 25.9558 11.6694 26.3752 12.1875 26.3752H31.0625C31.5806 26.3752 32 25.9558 32 25.4377C32 24.9194 31.5806 24.5002 31.0625 24.5002Z" fill="#2B4C65"/>
<path id="Vector_7" d="M8.85694 7.40112C9.17456 7.2417 9.375 6.91772 9.375 6.5625V2.8125C9.375 2.45728 9.17456 2.13306 8.85694 1.97388L5.10694 0.098877C4.84302 -0.032959 4.53198 -0.032959 4.26807 0.098877L0.518067 1.97388C0.200439 2.13306 0 2.45728 0 2.8125V6.5625C0 6.91772 0.200439 7.2417 0.518067 7.40112L3.75 9.01709V11.6704L0.518067 13.2864C0.200439 13.4456 0 13.7698 0 14.125V17.875C0 18.2302 0.200439 18.5542 0.518067 18.7136L3.75 20.3296V22.9829L0.518067 24.5989C0.200439 24.7581 0 25.0823 0 25.4375V29.1875C0 29.5427 0.200439 29.8667 0.518067 30.0261L4.26807 31.9011C4.3999 31.967 4.5437 32 4.6875 32C4.8313 32 4.9751 31.967 5.10694 31.9011L8.85694 30.0261C9.17456 29.8667 9.375 29.5427 9.375 29.1875V25.4375C9.375 25.0823 9.17456 24.7581 8.85694 24.5989L5.625 22.9829V20.3296L8.85694 18.7136C9.17456 18.5542 9.375 18.2302 9.375 17.875V14.125C9.375 13.7698 9.17456 13.4456 8.85694 13.2864L5.625 11.6704V9.01709L8.85694 7.40112ZM4.68579 28.25C4.16797 28.25 3.74829 27.8303 3.74829 27.3125C3.74829 26.7947 4.16797 26.375 4.68579 26.375C5.20362 26.375 5.62329 26.7947 5.62329 27.3125C5.62329 27.8303 5.20362 28.25 4.68579 28.25ZM4.68579 16.9375C4.16797 16.9375 3.74829 16.5178 3.74829 16C3.74829 15.4822 4.16797 15.0625 4.68579 15.0625C5.20362 15.0625 5.62329 15.4822 5.62329 16C5.62329 16.5178 5.20362 16.9375 4.68579 16.9375ZM4.68579 5.625C4.16797 5.625 3.74829 5.20532 3.74829 4.6875C3.74829 4.16968 4.16797 3.75 4.68579 3.75C5.20362 3.75 5.62329 4.16968 5.62329 4.6875C5.62329 5.20532 5.20362 5.625 4.68579 5.625Z" fill="#2B4C65"/>
</g>
<defs>
<clipPath id="clip0_727_7775">
<rect width="32" height="32" fill="#2B4C65"/>
</clipPath>
</defs>
</svg>
