<svg width="32" height="32" viewBox="0 0 32 32" fill="none" xmlns="http://www.w3.org/2000/svg">
<g id="fi_1176562" clip-path="url(#clip0_728_7833)">
<g id="surface1">
<path id="Vector" d="M0.9375 32H17.9375C18.4553 32 18.875 31.5803 18.875 31.0625V30.0625C18.875 29.0269 18.0356 28.1875 17 28.1875V27.0666C17 25.5825 15.7925 24.375 14.3083 24.375H4.56665C3.08252 24.375 1.875 25.5825 1.875 27.0666V28.1875C0.839355 28.1875 0 29.0269 0 30.0625V31.0625C0 31.5801 0.419922 32 0.9375 32Z" fill="#2B4C65"/>
<path id="Vector_2" d="M11.7334 20.6465C12.3565 21.4734 13.5322 21.6387 14.3591 21.0154C15.1863 20.3924 15.3513 19.2166 14.7283 18.3894L9.0862 10.9024C8.46291 10.0752 7.28737 9.9102 6.46047 10.5332C5.63332 11.1565 5.46804 12.3321 6.09133 13.1592L11.7334 20.6465Z" fill="#2B4C65"/>
<path id="Vector_3" d="M25.2102 10.4907C25.8335 11.3176 27.0091 11.4829 27.8362 10.8596C28.6631 10.2366 28.8284 9.06106 28.2051 8.23391L22.563 0.746848C21.94 -0.0803007 20.7642 -0.245584 19.9373 0.377707C19.1104 1.001 18.9451 2.17653 19.5684 3.00368L25.2102 10.4907Z" fill="#2B4C65"/>
<path id="Vector_4" d="M21.0977 15.9375C22.4834 14.8933 23.5237 13.5967 24.1743 12.2314L17.6094 3.51953C16.1177 3.7688 14.5847 4.41113 13.1987 5.45557C11.813 6.49976 10.7727 7.79639 10.1221 9.16138L16.687 17.8738C18.1787 17.6245 19.7117 16.9819 21.0977 15.9375Z" fill="#2B4C65"/>
<path id="Vector_5" d="M23.6291 16.1816C23.1926 16.6265 22.7329 17.053 22.2261 17.4351C21.719 17.8169 21.1821 18.1414 20.6345 18.4385L21.8569 20.0608L24.8518 17.8042L23.6291 16.1816Z" fill="#2B4C65"/>
<path id="Vector_6" d="M25.9802 19.3015L22.9854 21.5581L28.6274 29.0454C29.2507 29.8726 30.4263 30.0376 31.2532 29.4145C32.0803 28.7913 32.2454 27.6157 31.6223 26.7886L25.9802 19.3015Z" fill="#2B4C65"/>
</g>
</g>
<defs>
<clipPath id="clip0_728_7833">
<rect width="32" height="32" fill="#2B4C65"/>
</clipPath>
</defs>
</svg>
