<svg width="19" height="18" viewBox="0 0 19 18" fill="none" xmlns="http://www.w3.org/2000/svg">
<g id="fi_3177361" clip-path="url(#clip0_486_2525)">
<g id="Pin">
<path id="Vector" d="M9.5 0C7.71052 0.00237379 5.99501 0.714295 4.72965 1.97965C3.46429 3.24501 2.75237 4.96052 2.75 6.75C2.75 11.5959 9.03875 17.6653 9.30594 17.9212C9.35791 17.9718 9.42753 18 9.5 18C9.57247 18 9.64209 17.9718 9.69406 17.9212C9.96125 17.6653 16.25 11.5959 16.25 6.75C16.2476 4.96052 15.5357 3.24501 14.2703 1.97965C13.005 0.714295 11.2895 0.00237379 9.5 0ZM9.5 9.84375C8.88811 9.84375 8.28997 9.6623 7.7812 9.32236C7.27244 8.98241 6.87591 8.49924 6.64175 7.93393C6.40759 7.36862 6.34632 6.74657 6.4657 6.14644C6.58507 5.54631 6.87972 4.99506 7.31239 4.56239C7.74506 4.12972 8.29631 3.83507 8.89644 3.7157C9.49657 3.59632 10.1186 3.65759 10.6839 3.89175C11.2492 4.12591 11.7324 4.52244 12.0724 5.0312C12.4123 5.53997 12.5938 6.13811 12.5938 6.75C12.5933 7.57036 12.2672 8.35698 11.6871 8.93707C11.107 9.51715 10.3204 9.84326 9.5 9.84375Z" fill="#2B4C65"/>
</g>
</g>
<defs>
<clipPath id="clip0_486_2525">
<rect width="18" height="18" fill="white" transform="translate(0.5)"/>
</clipPath>
</defs>
</svg>
