<svg width="32" height="32" viewBox="0 0 32 32" fill="none" xmlns="http://www.w3.org/2000/svg">
<g id="fi_2108161" clip-path="url(#clip0_728_7827)">
<path id="Vector" d="M26.4041 6.53569C26.2658 6.94857 26.0314 7.32857 25.7248 7.63526L24.7122 8.64782C24.5373 8.82269 24.4375 9.06438 24.4375 9.31063V10.4093C24.4375 10.9265 24.8577 11.3468 25.375 11.3468C26.9259 11.3468 28.1875 12.6084 28.1875 14.1593V15.5921C28.1875 16.026 28.0849 16.4609 27.8909 16.8491L27.5704 17.4899C27.3589 17.912 27.5283 18.2681 27.6116 18.4018C27.694 18.5355 27.9366 18.8468 28.4091 18.8468H31.7362C31.8999 17.932 32 16.9953 32 16.0343C32 11.539 30.0594 7.48057 27.0558 4.58044L26.4041 6.53569Z" fill="white"/>
<path id="Vector_2" d="M8.18793 11.2507C7.97368 11.6398 8.11562 12.1516 8.51206 12.4152L10.4603 13.7144C10.4365 12.2431 11.2687 10.8103 12.7308 10.0596C13.0046 9.91949 13.1877 9.56061 13.1877 9.16599V8.5343C13.1877 6.98343 14.4493 5.7218 16.0002 5.7218H17.1317C17.4376 5.7218 17.7159 5.57899 17.8935 5.32993C18.072 5.08093 18.1178 4.77236 18.0189 4.48218L16.5354 0.0614268C16.3562 0.0554893 16.1808 0.0343018 16.0001 0.0343018C10.8805 0.0343018 6.26693 2.53311 3.34912 6.29643L6.34587 7.03011C8.186 7.4873 9.11018 9.56818 8.18793 11.2507Z" fill="white"/>
<path id="Vector_3" d="M19.4187 6.42125C18.8922 7.15731 18.0372 7.59681 17.1317 7.59681H16.0001C15.4829 7.59681 15.0626 8.01706 15.0626 8.53431V9.166C15.0626 10.2628 14.4831 11.2681 13.5868 11.7276C12.4973 12.287 12.0395 13.5166 12.5449 14.5264L12.8299 15.0967H13.9035C15.5533 15.0967 17.0374 16.0141 17.7762 17.4899C18.1946 18.3267 19.036 18.8467 19.9717 18.8467H21.6251C22.1433 18.8467 22.5626 19.2661 22.5626 19.7842V21.6592C22.5626 22.9227 22.0673 24.1074 21.1692 24.9945C19.7219 26.4229 18.3279 29.3654 17.3536 31.9657C23.9127 31.4103 29.416 26.8136 31.2945 20.7217H28.4092C27.4268 20.7217 26.5324 20.2228 26.016 19.3878C25.5005 18.5529 25.4539 17.5293 25.8933 16.6513L26.2137 16.0104C26.2787 15.8814 26.3126 15.7367 26.3126 15.5921V14.1592C26.3126 13.642 25.8924 13.2217 25.3751 13.2217C23.8242 13.2217 22.5626 11.9601 22.5626 10.4092V9.31062C22.5626 8.55987 22.8556 7.85312 23.3866 7.32212L24.3992 6.30956C24.5017 6.207 24.5795 6.07975 24.6262 5.9415L25.5142 3.27825C23.5122 1.78112 21.1532 0.684687 18.584 0.263062L19.7932 3.87794C20.0852 4.73394 19.9451 5.68512 19.4187 6.42125Z" fill="white"/>
<path id="Vector_4" d="M14.4507 31.9558C13.5606 30.0936 13.1875 26.2476 13.1875 24.6037C13.1875 24.1642 13.0163 23.7513 12.7059 23.4409L11.5872 22.3222C11.221 21.956 11.221 21.3627 11.5872 20.9965L12.1457 20.438C12.6474 19.9363 12.771 19.1727 12.4543 18.5392L11.5227 16.6761L7.47194 13.9752C6.2735 13.1769 5.86519 11.5839 6.54356 10.3479C6.87175 9.75293 6.54881 9.01299 5.89169 8.84924L2.22762 7.94836C0.821937 10.3225 0 13.0811 0 16.0343C0 24.2995 6.38731 31.1739 14.4507 31.9558Z" fill="white"/>
<path id="Vector_5" d="M20.6874 21.6593V20.7218H19.9715C18.3217 20.7218 16.8376 19.8044 16.0988 18.3286C15.6804 17.4918 14.839 16.9718 13.9034 16.9718H13.7669L14.1313 17.7006C14.7877 19.0134 14.5607 20.5845 13.5737 21.6575L14.0315 22.1152C14.6962 22.7799 15.0624 23.6634 15.0624 24.6037C15.0624 26.1262 15.3801 28.9399 15.8974 30.5311C16.7543 28.3805 18.1523 25.3371 19.8515 23.6607C20.3908 23.1278 20.6874 22.4174 20.6874 21.6593Z" fill="white"/>
</g>
<defs>
<clipPath id="clip0_728_7827">
<rect width="32" height="32" fill="white"/>
</clipPath>
</defs>
</svg>
