<svg width="28" height="28" viewBox="0 0 28 28" fill="none" xmlns="http://www.w3.org/2000/svg">
<g id="fi_12328804">
<g id="Layer 2">
<path id="Vector" d="M23.3343 1.45837H4.66764C4.12636 1.45903 3.60744 1.67435 3.22469 2.05709C2.84195 2.43984 2.62663 2.95876 2.62598 3.50004V24.5C2.62663 25.0413 2.84195 25.5602 3.22469 25.943C3.60744 26.3257 4.12636 26.5411 4.66764 26.5417H23.3343C23.8756 26.5411 24.3945 26.3257 24.7773 25.943C25.16 25.5602 25.3753 25.0413 25.376 24.5V3.50004C25.3753 2.95876 25.16 2.43984 24.7773 2.05709C24.3945 1.67435 23.8756 1.45903 23.3343 1.45837ZM7.00098 5.54171H12.8343C13.0664 5.54171 13.2889 5.63389 13.453 5.79799C13.6171 5.96208 13.7093 6.18464 13.7093 6.41671C13.7093 6.64877 13.6171 6.87133 13.453 7.03543C13.2889 7.19952 13.0664 7.29171 12.8343 7.29171H7.00098C6.76891 7.29171 6.54635 7.19952 6.38226 7.03543C6.21816 6.87133 6.12598 6.64877 6.12598 6.41671C6.12598 6.18464 6.21816 5.96208 6.38226 5.79799C6.54635 5.63389 6.76891 5.54171 7.00098 5.54171ZM21.001 22.4584H14.001C13.7689 22.4584 13.5464 22.3662 13.3823 22.2021C13.2182 22.038 13.126 21.8154 13.126 21.5834C13.126 21.3513 13.2182 21.1287 13.3823 20.9647C13.5464 20.8006 13.7689 20.7084 14.001 20.7084H21.001C21.233 20.7084 21.4556 20.8006 21.6197 20.9647C21.7838 21.1287 21.876 21.3513 21.876 21.5834C21.876 21.8154 21.7838 22.038 21.6197 22.2021C21.4556 22.3662 21.233 22.4584 21.001 22.4584ZM21.001 18.6667H7.00098C6.76891 18.6667 6.54635 18.5745 6.38226 18.4104C6.21816 18.2463 6.12598 18.0238 6.12598 17.7917C6.12598 17.5596 6.21816 17.3371 6.38226 17.173C6.54635 17.0089 6.76891 16.9167 7.00098 16.9167H21.001C21.233 16.9167 21.4556 17.0089 21.6197 17.173C21.7838 17.3371 21.876 17.5596 21.876 17.7917C21.876 18.0238 21.7838 18.2463 21.6197 18.4104C21.4556 18.5745 21.233 18.6667 21.001 18.6667ZM21.001 14.875H7.00098C6.76891 14.875 6.54635 14.7829 6.38226 14.6188C6.21816 14.4547 6.12598 14.2321 6.12598 14C6.12598 13.768 6.21816 13.5454 6.38226 13.3813C6.54635 13.2172 6.76891 13.125 7.00098 13.125H21.001C21.233 13.125 21.4556 13.2172 21.6197 13.3813C21.7838 13.5454 21.876 13.768 21.876 14C21.876 14.2321 21.7838 14.4547 21.6197 14.6188C21.4556 14.7829 21.233 14.875 21.001 14.875ZM21.001 11.0834H7.00098C6.76891 11.0834 6.54635 10.9912 6.38226 10.8271C6.21816 10.663 6.12598 10.4404 6.12598 10.2084C6.12598 9.97631 6.21816 9.75375 6.38226 9.58966C6.54635 9.42556 6.76891 9.33337 7.00098 9.33337H21.001C21.233 9.33337 21.4556 9.42556 21.6197 9.58966C21.7838 9.75375 21.876 9.97631 21.876 10.2084C21.876 10.4404 21.7838 10.663 21.6197 10.8271C21.4556 10.9912 21.233 11.0834 21.001 11.0834Z" fill="#2B4C65"/>
</g>
</g>
</svg>
