<svg width="28" height="28" viewBox="0 0 28 28" fill="none" xmlns="http://www.w3.org/2000/svg">
<g id="fi_681494" clip-path="url(#clip0_284_2089)">
<g id="Group">
<g id="Group_2">
<path id="Vector" d="M23.9584 14.9473H21.793C22.0137 15.5516 22.1343 16.2037 22.1343 16.8834V25.0674C22.1343 25.3508 22.0849 25.6228 21.9952 25.8758H25.5751C26.9124 25.8758 28.0003 24.7879 28.0003 23.4506V18.9892C28.0003 16.7605 26.1871 14.9473 23.9584 14.9473Z" fill="#2B4C65"/>
</g>
</g>
<g id="Group_3">
<g id="Group_4">
<path id="Vector_2" d="M5.86509 16.8834C5.86509 16.2036 5.98568 15.5515 6.20639 14.9472H4.04098C1.81225 14.9472 -0.000976562 16.7605 -0.000976562 18.9892V23.4507C-0.000976562 24.7879 1.08692 25.8758 2.4242 25.8758H6.00416C5.91442 25.6227 5.86509 25.3508 5.86509 25.0674V16.8834Z" fill="#2B4C65"/>
</g>
</g>
<g id="Group_5">
<g id="Group_6">
<path id="Vector_3" d="M16.4729 12.8414H11.5224C9.29369 12.8414 7.48047 14.6547 7.48047 16.8834V25.0674C7.48047 25.5138 7.84239 25.8758 8.28886 25.8758H19.7064C20.1529 25.8758 20.5148 25.5139 20.5148 25.0674V16.8834C20.5148 14.6547 18.7016 12.8414 16.4729 12.8414Z" fill="#2B4C65"/>
</g>
</g>
<g id="Group_7">
<g id="Group_8">
<path id="Vector_4" d="M13.9977 2.12402C11.3173 2.12402 9.13672 4.30464 9.13672 6.98504C9.13672 8.80313 10.1402 10.391 11.6221 11.2246C12.325 11.62 13.1354 11.846 13.9977 11.846C14.86 11.846 15.6704 11.62 16.3733 11.2246C17.8552 10.391 18.8586 8.80307 18.8586 6.98504C18.8586 4.30469 16.678 2.12402 13.9977 2.12402Z" fill="#2B4C65"/>
</g>
</g>
<g id="Group_9">
<g id="Group_10">
<path id="Vector_5" d="M5.46153 6.65485C3.45696 6.65485 1.82617 8.28563 1.82617 10.2902C1.82617 12.2948 3.45696 13.9256 5.46153 13.9256C5.97002 13.9256 6.45422 13.8202 6.89407 13.6309C7.65456 13.3035 8.28161 12.7239 8.66961 11.9979C8.94196 11.4884 9.09689 10.9071 9.09689 10.2902C9.09689 8.28569 7.4661 6.65485 5.46153 6.65485Z" fill="#2B4C65"/>
</g>
</g>
<g id="Group_11">
<g id="Group_12">
<path id="Vector_6" d="M22.5348 6.65491C20.5302 6.65491 18.8994 8.28569 18.8994 10.2903C18.8994 10.9073 19.0543 11.4885 19.3267 11.998C19.7147 12.724 20.3417 13.3036 21.1022 13.631C21.5421 13.8203 22.0263 13.9256 22.5348 13.9256C24.5393 13.9256 26.1701 12.2948 26.1701 10.2903C26.1701 8.28569 24.5393 6.65491 22.5348 6.65491Z" fill="#2B4C65"/>
</g>
</g>
</g>
<defs>
<clipPath id="clip0_284_2089">
<rect width="28" height="28" fill="white"/>
</clipPath>
</defs>
</svg>
