<svg width="23" height="22" viewBox="0 0 23 22" fill="none" xmlns="http://www.w3.org/2000/svg">
<g id="Group">
<path id="Shape" fill-rule="evenodd" clip-rule="evenodd" d="M22.06 11.25C22.06 10.47 21.99 9.72 21.86 9H11.5V13.255H17.42C17.165 14.63 16.39 15.795 15.225 16.575V19.335H18.78C20.86 17.42 22.06 14.6 22.06 11.25Z" fill="#4285F4"/>
<path id="Shape_2" fill-rule="evenodd" clip-rule="evenodd" d="M11.4999 22C14.4699 22 16.9599 21.015 18.7799 19.335L15.2249 16.575C14.2399 17.235 12.9799 17.625 11.4999 17.625C8.63492 17.625 6.20992 15.69 5.34492 13.09H1.66992V15.94C3.47992 19.535 7.19992 22 11.4999 22Z" fill="#34A853"/>
<path id="Shape_3" fill-rule="evenodd" clip-rule="evenodd" d="M5.345 13.09C5.125 12.43 5 11.725 5 11C5 10.275 5.125 9.57 5.345 8.91V6.06H1.67C0.925 7.545 0.5 9.225 0.5 11C0.5 12.775 0.925 14.455 1.67 15.94L5.345 13.09Z" fill="#FBBC05"/>
<path id="Shape_4" fill-rule="evenodd" clip-rule="evenodd" d="M11.4999 4.375C13.1149 4.375 14.5649 4.93 15.7049 6.02L18.8599 2.865C16.9549 1.09 14.4649 0 11.4999 0C7.19992 0 3.47992 2.465 1.66992 6.06L5.34492 8.91C6.20992 6.31 8.63492 4.375 11.4999 4.375Z" fill="#EA4335"/>
</g>
</svg>
