<svg width="18" height="18" viewBox="0 0 18 18" fill="none" xmlns="http://www.w3.org/2000/svg">
<g id="fi_8467663" clip-path="url(#clip0_80_3139)">
<g id="Clip path group">
<mask id="mask0_80_3139" style="mask-type:luminance" maskUnits="userSpaceOnUse" x="0" y="0" width="18" height="18">
<g id="clip_1">
<path id="artboard_1" fill-rule="evenodd" clip-rule="evenodd" d="M0 0H18V18H0V0Z" fill="white"/>
</g>
</mask>
<g mask="url(#mask0_80_3139)">
<g id="subscribe">
<path id="Vector" fill-rule="evenodd" clip-rule="evenodd" d="M11.4572 1.12361C10.6873 0.749537 9.8685 0.5625 9.00051 0.5625H8.99949C7.54858 0.5625 6.28498 1.04902 5.20873 2.02205C4.13246 2.99508 3.52142 4.20337 3.3756 5.64694L2.89869 10.3685C2.09123 10.7422 1.6875 11.4109 1.6875 12.3744V12.3756C1.6875 13.8752 2.43731 14.625 3.93694 14.625H5.66758C5.77592 15.3187 6.09126 15.9267 6.61354 16.449C7.27251 17.108 8.06799 17.4375 9 17.4375C9.93201 17.4375 10.7275 17.108 11.3865 16.449C11.9087 15.9267 12.2241 15.3187 12.3324 14.625H14.0631C15.5627 14.625 16.3125 13.8752 16.3125 12.3756V12.3744C16.3125 11.4109 15.9088 10.7422 15.1013 10.3685L14.8823 8.19984L14.8882 8.19765C16.5877 7.63942 17.4375 6.40688 17.4375 4.5C17.4375 3.41269 17.0531 2.48461 16.2842 1.71577C15.5154 0.946924 14.5873 0.5625 13.5 0.5625C12.7416 0.5625 12.0606 0.749537 11.4572 1.12361ZM10.5043 1.94239C9.87643 2.66489 9.5625 3.51743 9.5625 4.5C9.5625 5.58731 9.94691 6.51538 10.7158 7.28421C11.4846 8.05309 12.4127 8.4375 13.5 8.4375C13.5927 8.4375 13.6843 8.43469 13.7747 8.42912L14.0166 10.824C14.0279 10.9354 14.0687 11.0347 14.1393 11.1217C14.2098 11.2087 14.2984 11.2692 14.4051 11.3033C14.9267 11.4699 15.1875 11.8269 15.1875 12.3744V12.3756C15.1875 12.6861 15.0777 12.9511 14.8582 13.1707C14.6386 13.3902 14.3736 13.5 14.0631 13.5H3.93694C3.18731 13.5 2.8125 13.1252 2.8125 12.3756V12.3744C2.8125 11.8269 3.07329 11.4699 3.59486 11.3033C3.70157 11.2692 3.79018 11.2087 3.86071 11.1217C3.93125 11.0347 3.97214 10.9354 3.98339 10.824L4.49491 5.76C4.6117 4.60374 5.10113 3.63593 5.96317 2.85655C6.82526 2.07718 7.83737 1.6875 8.99949 1.6875H9.00051C9.52408 1.6875 10.0253 1.77247 10.5043 1.94239ZM11.7925 2.26173C11.6957 2.33742 11.6019 2.4206 11.5113 2.51126C10.9621 3.06044 10.6875 3.72335 10.6875 4.5C10.6875 5.27665 10.9621 5.93955 11.5113 6.48872C12.0605 7.03789 12.7234 7.3125 13.5 7.3125C13.7014 7.3125 13.8953 7.29405 14.0814 7.25709C14.1023 7.24961 14.124 7.24326 14.1464 7.23803C14.264 7.21035 14.3768 7.17891 14.4849 7.14364C14.8536 7.00757 15.1882 6.78926 15.4887 6.48872C16.0379 5.93955 16.3125 5.27665 16.3125 4.5C16.3125 4.45146 16.3114 4.40336 16.3093 4.35571C16.2771 3.64093 16.0036 3.02611 15.4887 2.51126C14.9395 1.96208 14.2766 1.6875 13.5 1.6875H13.4978C12.8823 1.68795 12.3276 1.87009 11.8338 2.23391C11.8203 2.24386 11.8065 2.25313 11.7925 2.26173ZM12.7727 3.821L12.9716 4.01988L13.2188 4.26701L13.713 3.77275L14.5085 2.97725C14.6184 2.86742 14.7509 2.8125 14.9062 2.8125C15.0616 2.8125 15.1941 2.86742 15.304 2.97725C15.3568 3.03 15.3974 3.09083 15.4259 3.15974C15.4545 3.22865 15.4688 3.30041 15.4688 3.375C15.4688 3.44959 15.4545 3.52135 15.4259 3.59026C15.3974 3.65917 15.3568 3.72 15.304 3.77275L13.6165 5.46025C13.5066 5.57008 13.3741 5.625 13.2188 5.625C13.0634 5.625 12.9309 5.57008 12.821 5.46025L11.9773 4.6165C11.9245 4.56375 11.8839 4.50292 11.8553 4.43401C11.8268 4.3651 11.8125 4.29334 11.8125 4.21875C11.8125 4.14416 11.8268 4.0724 11.8553 4.00349C11.8839 3.93458 11.9245 3.87375 11.9773 3.821C12.0871 3.71117 12.2197 3.65625 12.375 3.65625C12.5303 3.65625 12.6629 3.71117 12.7727 3.821ZM9 16.3125C7.70096 16.3125 6.96443 15.75 6.79039 14.625H11.2096C11.0356 15.75 10.299 16.3125 9 16.3125Z" fill="#fff"/>
</g>
</g>
</g>
</g>
<defs>
<clipPath id="clip0_80_3139">
<rect width="18" height="18" fill="white"/>
</clipPath>
</defs>
</svg>
