<svg width="32" height="32" viewBox="0 0 32 32" fill="none" xmlns="http://www.w3.org/2000/svg">
<g id="fi_10516886">
<path id="Vector" d="M27.8388 2.71875H4.16062C3.36562 2.71875 2.71875 3.36562 2.71875 4.16062V7.715H29.2812V4.16062C29.2812 3.36562 28.6344 2.71875 27.8388 2.71875ZM8.68125 6.37625H5.19812C4.76687 6.37625 4.41687 6.02687 4.41687 5.595C4.41687 5.16375 4.76687 4.81375 5.19812 4.81375H8.68125C9.11312 4.81375 9.4625 5.16375 9.4625 5.595C9.4625 6.02687 9.11312 6.37625 8.68125 6.37625ZM16 6.37625H12.5169C12.085 6.37625 11.7356 6.02687 11.7356 5.595C11.7356 5.16375 12.085 4.81375 12.5169 4.81375H16C16.4312 4.81375 16.7812 5.16375 16.7812 5.595C16.7812 6.02687 16.4312 6.37625 16 6.37625ZM2.71875 27.8394C2.71875 28.6344 3.36562 29.2812 4.16062 29.2812H27.8388C28.6344 29.2812 29.2812 28.6344 29.2812 27.8394V9.2775H2.71875V27.8394ZM9.95687 25.3719H7.22062V22.29H9.95687V25.3719ZM17.3675 25.3719H14.6319V19.9681H17.3675V25.3719ZM24.7787 25.3719H22.0431V17.6456H24.7787V25.3719ZM6.19562 17.5056L25.3162 11.2312C25.7262 11.0962 26.1681 11.32 26.3025 11.73C26.4369 12.1394 26.2137 12.5813 25.8038 12.7156L6.68319 18.9906C6.60256 19.0169 6.52006 19.0294 6.43944 19.0294C6.11069 19.0294 5.80506 18.8206 5.69756 18.4919C5.5625 18.0819 5.78625 17.64 6.19562 17.5056Z" fill="#2B4C65"/>
</g>
</svg>
