<svg width="20" height="20" viewBox="0 0 20 20" fill="none" xmlns="http://www.w3.org/2000/svg">
<g id="fi_568717" clip-path="url(#clip0_730_10412)">
<g id="Group">
<g id="Group_2">
<g id="Group_3">
<path id="Vector" d="M16.6626 7.35166C15.7383 3.66932 12.0039 1.43355 8.32155 2.3579C5.4439 3.08029 3.3544 5.5674 3.13911 8.52649C1.09586 8.86344 -0.287385 10.793 0.0495699 12.8362C0.349107 14.6527 1.92307 15.983 3.76404 15.9757H6.8887V14.7258H3.76404C2.38349 14.7258 1.26432 13.6066 1.26432 12.2261C1.26432 10.8455 2.38349 9.72636 3.76404 9.72636C4.1092 9.72636 4.38897 9.44658 4.38897 9.10142C4.38585 5.99516 6.90147 3.4745 10.0077 3.47142C12.6966 3.46872 15.0114 5.36968 15.5315 8.00779C15.5829 8.2712 15.7966 8.47243 16.0627 8.50774C17.7712 8.75103 18.9589 10.3332 18.7156 12.0417C18.4972 13.5758 17.1873 14.7181 15.6377 14.7258H13.138V15.9757H15.6377C18.0537 15.9684 20.0063 14.0039 19.999 11.5879C19.9929 9.5768 18.6163 7.82891 16.6626 7.35166Z" fill="#2B4C65"/>
<path id="Vector_2" d="M9.57004 9.90745L7.07031 12.4072L7.95147 13.2883L9.38881 11.8572V17.8503H10.6387V11.8572L12.0698 13.2883L12.9509 12.4072L10.4512 9.90745C10.2074 9.66513 9.8138 9.66513 9.57004 9.90745Z" fill="#2B4C65"/>
</g>
</g>
</g>
</g>
<defs>
<clipPath id="clip0_730_10412">
<rect width="20" height="20" fill="white"/>
</clipPath>
</defs>
</svg>
