<svg width="21" height="20" viewBox="0 0 21 20" fill="none" xmlns="http://www.w3.org/2000/svg">
<path d="M13.8228 2.9659C8.73442 -0.312781 1.76684 3.72691 0.869964 9.6945C-0.100128 16.1567 6.52578 20.5072 12.0901 19.8413C18.2584 19.0993 22.2181 12.0092 20.1132 5.97189C18.0082 -0.065453 10.5221 -1.80943 5.82414 2.05269C4.56119 3.0864 6.34274 4.91282 7.58739 3.88546C11.1261 0.980936 16.8063 2.90883 17.9594 7.45586C19.1126 12.0029 15.9765 17.0065 11.364 17.3109C7.75822 17.5519 3.29214 15.0723 3.28604 10.8677C3.28604 6.26361 8.77712 2.76931 12.5782 5.20454C13.9509 6.08604 15.2017 3.84107 13.835 2.9659H13.8228Z" fill="#10100E"/>
</svg>
