<svg width="67" height="134" viewBox="0 0 67 134" fill="none" xmlns="http://www.w3.org/2000/svg">
<path fill-rule="evenodd" clip-rule="evenodd" d="M37.3574 77.2143C37.6461 76.8686 37.8321 76.6464 38.0116 76.4318C37.9304 76.2254 37.7817 76.2921 37.6425 76.2914C37.3568 76.2904 37.1213 76.7708 36.8591 76.4769C36.5418 76.1215 37.1236 75.9709 37.1766 75.6725C36.781 75.4527 36.5186 75.944 36.1688 75.8597C35.8687 74.8825 36.3396 74.2995 37.0499 73.703C38.9798 72.0819 40.7583 70.3067 42.21 68.2227C42.758 67.4357 43.9973 67.3291 44.3085 66.3227C44.7033 65.0462 45.6216 64.1025 46.5578 63.3768C48.1748 62.1235 48.957 60.3285 50.1425 58.8027C50.476 58.3733 50.3798 57.6995 50.9727 57.4391C51.1641 57.3549 51.491 57.1318 51.5214 57.4073C51.6267 58.3493 52.4181 58.1363 52.937 58.4359C53.9001 58.9922 53.8134 60.0679 53.6588 60.9916C53.4151 62.4473 52.6182 63.6946 51.6864 64.7878C48.12 68.9742 44.2525 72.8628 39.8833 76.2205C39.2178 76.7321 38.5545 77.4232 37.3574 77.2143Z" fill="black"/>
<path fill-rule="evenodd" clip-rule="evenodd" d="M50.5573 16.5756C53.0782 17.3021 53.5224 18.6239 52.0708 20.4714C50.9357 21.916 49.4151 22.9394 47.9331 23.9764C44.4736 26.3964 40.9356 28.6963 37.268 30.7981C36.371 31.3123 35.4564 31.3265 34.5167 31.3437C34.1888 31.3494 33.4644 31.3385 33.5651 31.0831C33.7722 30.561 33.3725 29.9186 34.0225 29.4824C36.9248 27.5348 39.6457 25.3395 42.421 23.2184C43.6445 22.283 44.9429 21.4425 46.1401 20.4757C46.9496 19.8218 47.7909 19.1055 47.5224 17.8364C47.4901 17.6849 47.625 17.35 47.6929 17.3473C48.784 17.2999 49.6895 16.4112 50.5573 16.5756Z" fill="black"/>
<path fill-rule="evenodd" clip-rule="evenodd" d="M8.44106 66.3194C6.72953 67.4042 5.41742 68.9435 3.72653 70.0244C3.2285 70.3426 2.67189 70.5832 2.21812 70.9532C1.46884 71.5645 1.08884 70.8265 0.806443 70.4857C0.532124 70.1553 0.527048 69.5683 1.03919 69.1607C3.13065 67.4963 4.9865 65.5503 6.66146 63.5088C7.85526 62.0533 9.46456 60.9397 10.2663 59.0781C10.5703 58.3734 11.3118 57.6719 11.8234 56.9319C12.5074 55.9425 13.0096 57.0672 13.5858 57.2753C13.6767 57.3081 13.6808 57.6042 13.7661 57.6268C14.1293 57.7252 14.6056 56.865 14.8466 57.6253C15.1737 58.6569 15.5536 59.6507 14.7848 60.8177C13.5638 62.6699 12.0572 64.225 10.4677 65.7194C8.31278 67.7456 6.24634 69.8901 3.59721 71.3131C3.40197 71.4179 3.21513 71.5408 3.01287 71.63C2.80427 71.722 2.54338 71.777 2.41201 71.5529C2.24503 71.2676 2.44272 71.0369 2.691 70.9295C4.86023 69.993 6.32936 68.1676 8.08094 66.7021C8.21396 66.5905 8.32157 66.4475 8.44106 66.3194Z" fill="black"/>
<path fill-rule="evenodd" clip-rule="evenodd" d="M39.7143 49.655C37.9919 51.1611 36.2611 52.6623 34.4287 54.0435C36.2694 53.3403 38.851 51.225 39.7143 49.655ZM38.1784 46.1814C38.5809 46.1792 37.2642 47.1997 38.5036 46.6963C38.5367 46.6829 38.5995 46.6655 38.609 46.6784C39.1281 47.3873 39.724 47.5263 40.5159 47.0678C40.7236 46.9475 41.5686 48.6967 41.4776 49.116C41.34 49.7488 41.0146 50.2922 40.5857 50.7581C38.1642 53.3891 35.2638 55.3211 31.9307 56.6024C30.298 57.2304 28.9202 56.717 27.7293 55.5611C27.0898 54.9401 27.2325 54.4545 28.0338 54.028C28.8772 53.5796 29.6993 53.0835 30.4921 52.5505C31.4068 51.9355 32.2331 51.2094 33.2054 50.6534C34.4823 49.9236 35.233 48.5853 36.2947 47.5887C36.8815 47.0389 37.4236 46.4656 38.1784 46.1814Z" fill="black"/>
<path fill-rule="evenodd" clip-rule="evenodd" d="M7.40935 35.3844C7.71978 34.8932 7.90666 34.5978 8.19144 34.1473C7.89883 34.2641 7.73665 34.2785 7.66379 34.3669C7.07273 35.0816 6.47644 34.6825 6.03475 34.2703C5.56182 33.8291 5.6007 33.1493 5.9797 32.662C6.59806 31.8667 7.2705 31.0962 8.01542 30.4199C9.04327 29.4867 10.1525 28.6181 10.986 27.5163C11.8568 26.3657 12.9469 25.3157 13.0697 23.7051C13.1274 22.9449 13.8478 22.6946 14.4197 23.176C14.7301 23.4381 15.0558 23.5117 15.4132 23.5948C17.6776 24.1217 18.3776 26.0346 16.9008 27.9182C14.8189 30.5729 12.1193 32.5482 9.35788 34.4307C8.83009 34.7905 8.37986 35.3412 7.40935 35.3844Z" fill="black"/>
<path fill-rule="evenodd" clip-rule="evenodd" d="M25.1288 96.2536C25.1981 96.344 25.267 96.4342 25.336 96.5245C26.0699 95.8688 26.8076 95.2177 27.5315 94.5511C27.6158 94.4732 27.7768 94.3353 27.6357 94.1836C27.5376 94.0782 27.3399 93.9996 27.2566 94.1381C26.7266 95.0211 25.6551 95.3729 25.1288 96.2536ZM31.6297 87.6063C32.071 87.2443 32.0689 86.4092 33.0706 86.6285C33.7948 86.7868 33.5681 87.0937 33.4638 87.4599C34.091 87.5798 34.0542 86.7832 34.637 86.7939C34.579 87.8408 33.9473 88.6782 33.7211 89.6354C33.7065 89.6614 33.6934 89.6908 33.6812 89.723C32.7351 90.1578 32.2809 91.0834 31.6202 91.8011C31.3475 92.0979 31.1685 92.4937 30.8654 92.7465C28.4269 94.7808 26.2504 97.108 23.7019 99.0259C21.7046 100.529 19.8376 102.204 17.7618 103.608C17.2845 103.931 16.8368 104.307 15.946 104.533C16.8402 103.635 17.5208 102.952 18.201 102.269C18.1808 102.298 18.1616 102.328 18.1432 102.36C19.5917 101.762 20.4857 100.456 21.8053 99.6673C21.5434 99.2758 21.3524 99.5514 21.1764 99.5384C20.8753 99.5156 20.7507 99.2871 20.7107 99.0109C20.6908 98.8756 20.6333 98.668 20.8386 98.6736C21.7494 98.6982 21.7472 97.9362 21.9315 97.3851C22.1355 96.776 22.5679 96.5329 23.129 96.3951C23.9936 96.1831 24.6077 95.7073 24.785 94.7854C24.9706 94.6299 25.1559 94.4738 25.3414 94.3182C26.2676 94.1523 27.9842 92.5446 28.1361 91.7013C28.6064 91.8099 29.0406 90.984 29.5337 91.6459C29.5722 92.2186 29.6079 92.4948 30.2783 91.9872C31.1252 91.3464 31.3445 90.2067 32.2931 89.6889C32.4339 89.6124 32.4721 89.4508 32.3476 89.3153C32.186 89.1391 31.979 89.1751 31.8941 89.359C31.5258 90.1536 30.6944 90.5485 30.2669 91.2824C30.0862 91.5919 29.9127 91.8584 29.4952 91.6676C29.671 90.0502 31.1591 89.3366 31.9424 88.1368C32.0461 87.9778 32.5657 88.6345 32.4963 87.9799C32.4627 87.6605 32.0678 87.3938 31.6297 87.6063Z" fill="black"/>
<path fill-rule="evenodd" clip-rule="evenodd" d="M27.7021 9.45236C28.0911 8.91522 28.0774 8.32579 28.0343 7.75133C28.0116 7.44909 27.9947 7.21992 28.3547 7.20008C28.6833 7.18187 28.807 7.44457 28.8478 7.7031C28.9521 8.3618 28.6996 8.99067 28.3805 9.49894C27.1632 11.4393 25.49 12.9472 23.5952 14.2167C23.0329 14.5929 22.4063 14.9002 21.9196 15.3572C21.0349 16.1877 19.9352 16.1821 18.8741 16.2211C18.3785 16.2396 18.4656 15.6067 18.4661 15.2529C18.4666 15.0504 18.7084 14.7265 18.9065 14.6651C20.8214 14.0714 21.6432 12.1798 23.1417 11.0791C23.6355 10.7164 23.7403 9.72451 24.3829 9.2395C24.8907 8.85613 25.2637 8.30209 26.0145 8.26485C26.4476 8.2438 26.294 7.65007 26.5587 7.39902C26.6946 7.27005 26.8041 7.09954 27.0061 7.13012C27.2073 7.16047 27.4046 7.3962 27.3342 7.51032C26.8604 8.2769 27.7844 8.77098 27.7021 9.45236Z" fill="black"/>
<path fill-rule="evenodd" clip-rule="evenodd" d="M16.348 45.6264C16.8568 45.4383 16.5992 44.4639 17.2046 44.7836C17.7206 45.0565 17.3307 45.6695 17.0713 46.055C15.4629 48.4419 13.219 49.9068 10.4116 50.4836C9.98639 50.571 9.36511 50.7125 9.17947 50.0675C9.01419 49.4955 9.56869 49.3349 9.92379 49.108C11.4127 48.1555 12.8515 47.1597 13.6345 45.4839C13.831 45.0629 14.2343 45.0062 14.6415 44.9612C14.7837 44.9453 14.9361 44.8967 15.0557 44.82C16.0015 44.2126 16.5644 44.281 16.348 45.6264Z" fill="black"/>
<path fill-rule="evenodd" clip-rule="evenodd" d="M24.867 99.1452C25.3596 97.8682 26.6871 97.4652 27.5881 96.619C28.2556 95.9923 28.8688 95.2402 29.7616 94.8462C29.9837 94.7483 30.1497 94.4397 30.3983 94.6909C30.596 94.8911 30.5671 95.1735 30.3358 95.3805C28.9434 96.6254 27.5721 97.8963 26.0298 98.9598C25.6657 99.2109 25.2421 99.08 24.8438 99.1105L24.867 99.1452Z" fill="black"/>
<path fill-rule="evenodd" clip-rule="evenodd" d="M24.8448 99.1104C24.8957 99.4389 24.9741 99.7532 24.6358 100.015C22.719 101.498 20.8245 103.011 18.7378 104.258C18.5763 104.355 18.4186 104.648 18.1949 104.372C18.0532 104.198 18.1521 104.018 18.3174 103.899C20.4464 102.37 22.5387 100.793 24.5547 99.1158C24.6115 99.0687 24.7614 99.1328 24.868 99.145L24.8448 99.1104Z" fill="black"/>
<path fill-rule="evenodd" clip-rule="evenodd" d="M33.682 89.7232C33.6938 89.6909 33.7074 89.6612 33.7216 89.6351C34.0472 89.2112 34.5703 88.9422 34.6983 88.361C34.7439 88.154 34.7995 87.8571 35.1017 87.9725C35.3718 88.0756 35.2609 88.3222 35.1739 88.5344C34.3994 90.4209 33.2161 92.0536 31.9649 93.6371C31.75 93.9087 31.2842 94.1333 30.9904 93.8785C30.6424 93.5767 31.0591 93.2667 31.2678 93.0749C32.306 92.1204 32.9837 90.9168 33.682 89.7232Z" fill="black"/>
<path fill-rule="evenodd" clip-rule="evenodd" d="M18.1453 102.36C18.1636 102.329 18.1828 102.299 18.2034 102.27C17.6204 102.6 16.7956 102.511 16.4773 103.336C16.4247 103.472 15.9226 103.882 15.653 103.463C15.3966 103.066 15.8524 102.854 16.104 102.723C17.241 102.132 18.2249 101.377 18.9989 100.209C19.2278 100.708 19.6662 101.117 18.8434 101.409C18.4012 101.566 18.4159 102.07 18.1453 102.36Z" fill="black"/>
<path fill-rule="evenodd" clip-rule="evenodd" d="M25.3421 94.3191C25.1566 94.4746 24.9709 94.6306 24.7857 94.7863C24.5937 94.8648 24.4019 94.9429 24.2103 95.0215C24.1658 94.9676 24.1221 94.9139 24.078 94.8601C24.622 94.3201 25.1664 93.7806 25.7104 93.2406C25.7802 93.2878 25.8499 93.3353 25.9196 93.3829C25.7272 93.6946 25.5346 94.007 25.3421 94.3191Z" fill="black"/>
<path fill-rule="evenodd" clip-rule="evenodd" d="M31.0552 88.0426C31.0539 88.8406 30.3761 89.1766 29.9313 89.6651C29.4952 90.1441 29.0199 90.5878 28.5613 91.0472C28.5339 90.739 28.6294 90.5003 28.8619 90.2727C29.6071 89.5434 30.3262 88.788 31.0552 88.0426Z" fill="black"/>
<path fill-rule="evenodd" clip-rule="evenodd" d="M73.1668 106.302C66.9181 113.119 59.938 119.099 52.7373 124.803C52.1922 124.484 52.8138 124.265 52.6703 123.974C52.3808 123.724 51.7798 124.422 51.5554 123.584C51.3488 122.815 51.7237 122.388 52.1471 121.958C54.3754 119.694 57.1339 118.033 59.2164 115.57C59.9289 114.727 60.4581 113.598 61.7485 113.152C62.5429 112.877 62.7222 111.661 63.5277 111.056C64.0321 110.677 64.4289 110.059 64.9923 109.63C67.2364 107.922 68.8742 105.733 69.9131 103.109C70.1001 102.636 70.4286 102.254 70.8838 102.368C72.125 102.678 73.4918 102.518 74.3892 103.938C75.0405 104.97 74.9195 105.7 74.4027 106.572C73.1572 108.67 71.4011 110.334 69.6675 112.003C67.6396 113.954 65.4592 115.743 63.3656 117.62C60.5499 120.144 57.5517 122.431 54.6419 124.831C54.3651 125.059 54.0098 125.592 53.6548 125.211C53.3875 124.924 53.8606 124.557 54.1257 124.327C55.7975 122.876 57.5341 121.509 59.2966 120.165C60.9858 118.878 62.5222 117.377 64.0497 115.893C66.5185 113.493 69.1275 111.237 71.4652 108.703C72.1316 107.98 72.7968 107.246 73.1668 106.302Z" fill="black"/>
<path fill-rule="evenodd" clip-rule="evenodd" d="M46.4035 100.474C46.8581 99.7937 47.3144 99.0761 47.8051 98.3824C50.9142 93.9841 54.4665 89.9603 58.1803 86.0697C59.604 84.5784 61.1481 83.1981 62.3812 81.5248C62.7342 81.0453 63.2139 80.7245 63.6905 81.4782C63.8028 81.656 64.0093 81.7809 64.1886 81.9087C65.3814 82.758 65.609 83.9235 64.7978 85.1851C63.9662 86.4794 62.8224 87.4942 61.7021 88.519C56.9622 92.8533 52.3862 97.3415 48.4216 102.416C47.919 103.06 47.834 103.034 47.4759 102.333C47.4369 102.257 47.3355 102.181 47.2516 102.165C46.2636 101.975 46.3779 101.244 46.4035 100.474Z" fill="black"/>
<path fill-rule="evenodd" clip-rule="evenodd" d="M62.1354 42.5665C61.4471 42.9229 60.7047 43.2043 60.0851 43.6547C59.3621 44.18 58.7301 44.1599 58.0686 43.6516C57.6754 43.3488 57.9027 42.9107 58.0303 42.6264C58.3589 41.8948 58.9788 41.436 59.7941 41.3752C59.989 41.3608 60.2164 41.5703 60.3072 41.2512C60.7488 39.692 62.3525 39.2532 63.2967 38.1729C63.5864 37.8419 64.0261 37.5746 64.3748 37.2498C65.3929 36.3016 66.3137 35.2184 67.9026 35.1982C68.2728 35.1936 68.9005 35.043 68.8644 34.4722C68.7543 32.7313 70.1629 31.9925 71.126 31.0004C72.7088 29.3706 74.524 27.9769 76.0451 26.2785C76.2167 26.087 76.3739 25.79 76.6622 25.9557C77.0222 26.1632 76.4101 26.3603 76.6212 26.6399C77.1779 26.5208 77.8008 25.9473 78.2399 26.9597C78.3966 27.321 78.8912 26.9275 79.1528 26.6663C79.3519 26.4678 79.56 26.2868 79.8069 26.5453C80.1054 26.8579 79.7335 26.9891 79.5837 27.1549C76.8532 30.1773 73.7874 32.8374 70.6551 35.4257C67.8965 37.7055 65.1382 39.9857 62.3802 42.2647C62.2993 42.3648 62.2174 42.4655 62.1354 42.5665Z" fill="black"/>
<path fill-rule="evenodd" clip-rule="evenodd" d="M69.4947 61.5614C69.6788 61.7912 69.7995 61.8597 69.9706 61.6431C70.594 60.8539 71.1669 60.0094 71.8845 59.316C72.3183 58.897 72.5519 57.8438 73.5771 58.4637C73.7401 58.5622 73.7677 58.3291 73.7236 58.1802C73.6205 57.832 73.7986 57.6492 74.0725 57.4594C74.5397 57.1363 74.7691 56.695 74.8447 56.0903C74.9836 54.9735 75.8765 54.665 76.7291 55.3834C76.8314 55.47 76.9889 55.708 77.0206 55.6372C77.7687 53.9663 78.0523 56.5466 78.679 55.8127C78.8993 56.1358 78.9477 56.4806 78.8726 56.8679C78.7004 57.7555 78.1366 58.3867 77.5291 58.991C75.2275 61.2803 72.4249 62.8315 69.5831 64.3085C68.8987 64.6648 68.0794 64.4602 67.3227 64.466C66.8785 64.4694 66.734 64.061 66.6717 63.6922C66.5863 63.1868 66.8337 63.2074 67.1634 63.43C67.4399 62.6461 68.1194 62.2431 68.7208 61.7598C68.9856 61.5471 69.1999 61.2595 69.4947 61.5614Z" fill="black"/>
<path fill-rule="evenodd" clip-rule="evenodd" d="M62.1367 42.5671C62.2187 42.4661 62.3006 42.3654 62.3815 42.2653C64.1553 41.4218 65.7289 40.2432 67.2666 39.062C69.382 37.4371 71.3844 35.6545 73.3413 33.8381C74.9974 32.3007 76.9096 31.0404 78.2904 29.1953C78.8509 28.4463 79.6013 27.8311 80.6924 27.5223C80.5489 28.8503 79.511 29.4305 78.7913 30.1896C76.8951 32.1903 74.7332 33.9022 72.5945 35.6292C68.7361 38.7446 65.006 42.0399 60.6207 44.442C60.3699 44.5793 60.1375 44.8005 59.7081 44.5222C60.3079 43.5865 61.4435 43.33 62.1367 42.5671Z" fill="black"/>
</svg>
