<svg width="194" height="169" viewBox="0 0 194 169" fill="none" xmlns="http://www.w3.org/2000/svg">
<g opacity="0.7">
<mask id="mask0_139_4035" style="mask-type:alpha" maskUnits="userSpaceOnUse" x="0" y="0" width="200" height="169">
<rect width="200" height="169" fill="white"/>
<rect width="200" height="169" fill="white"/>
</mask>
<g mask="url(#mask0_139_4035)">
<rect width="1.54893" height="1909.44" transform="matrix(0.721387 0.692532 -0.489747 0.871865 -0.835632 -334.922)" fill="#91A69D"/>
<rect width="1.54893" height="1909.44" transform="matrix(0.721387 0.692532 -0.489747 0.871865 5.552 -328.791)" fill="#91A69D"/>
<rect width="1.54893" height="1909.44" transform="matrix(0.721387 0.692532 -0.489747 0.871865 11.9373 -322.662)" fill="#91A69D"/>
<rect width="1.54893" height="1909.44" transform="matrix(0.721387 0.692532 -0.489747 0.871865 18.3198 -316.533)" fill="#91A69D"/>
<rect width="1.54893" height="1909.44" transform="matrix(0.721387 0.692532 -0.489747 0.871865 24.7048 -310.403)" fill="#91A69D"/>
<rect width="1.54893" height="1909.44" transform="matrix(0.721387 0.692532 -0.489747 0.871865 63.0138 -273.626)" fill="#91A69D"/>
<rect width="1.54893" height="1909.44" transform="matrix(0.721387 0.692532 -0.489747 0.871865 31.0898 -304.274)" fill="#91A69D"/>
<rect width="1.54893" height="1909.44" transform="matrix(0.721387 0.692532 -0.489747 0.871865 69.4014 -267.496)" fill="#91A69D"/>
<rect width="1.54893" height="1909.44" transform="matrix(0.721387 0.692532 -0.489747 0.871865 37.4772 -298.143)" fill="#91A69D"/>
<rect width="1.54893" height="1909.44" transform="matrix(0.721387 0.692532 -0.489747 0.871865 75.7866 -261.366)" fill="#91A69D"/>
<rect width="1.54893" height="1909.44" transform="matrix(0.721387 0.692532 -0.489747 0.871865 43.861 -292.014)" fill="#91A69D"/>
<rect width="1.54893" height="1909.44" transform="matrix(0.721387 0.692532 -0.489747 0.871865 82.1692 -255.237)" fill="#91A69D"/>
<rect width="1.54893" height="1909.44" transform="matrix(0.721387 0.692532 -0.489747 0.871865 50.2455 -285.884)" fill="#91A69D"/>
<rect width="1.54893" height="1909.44" transform="matrix(0.721387 0.692532 -0.489747 0.871865 88.5544 -249.107)" fill="#91A69D"/>
<rect width="1.54893" height="1909.44" transform="matrix(0.721387 0.692532 -0.489747 0.871865 56.63 -279.755)" fill="#91A69D"/>
<rect width="1.54893" height="1909.44" transform="matrix(0.721387 0.692532 -0.489747 0.871865 94.9427 -242.977)" fill="#91A69D"/>
<rect width="1.54893" height="1909.44" transform="matrix(0.721387 0.692532 -0.489747 0.871865 101.327 -236.848)" fill="#91A69D"/>
<rect width="1.54893" height="1909.44" transform="matrix(0.721387 0.692532 -0.489747 0.871865 139.635 -200.07)" fill="#91A69D"/>
<rect width="1.54893" height="1909.44" transform="matrix(0.721387 0.692532 -0.489747 0.871865 107.711 -230.718)" fill="#91A69D"/>
<rect width="1.54893" height="1909.44" transform="matrix(0.721387 0.692532 -0.489747 0.871865 146.019 -193.941)" fill="#91A69D"/>
<rect width="1.54893" height="1909.44" transform="matrix(0.721387 0.692532 -0.489747 0.871865 114.095 -224.588)" fill="#91A69D"/>
<rect width="1.54893" height="1909.44" transform="matrix(0.721387 0.692532 -0.489747 0.871865 152.407 -187.81)" fill="#91A69D"/>
<rect width="1.54893" height="1909.44" transform="matrix(0.721387 0.692532 -0.489747 0.871865 120.479 -218.459)" fill="#91A69D"/>
<rect width="1.54893" height="1909.44" transform="matrix(0.721387 0.692532 -0.489747 0.871865 158.792 -181.681)" fill="#91A69D"/>
<rect width="1.54893" height="1909.44" transform="matrix(0.721387 0.692532 -0.489747 0.871865 126.867 -212.329)" fill="#91A69D"/>
<rect width="1.54893" height="1909.44" transform="matrix(0.721387 0.692532 -0.489747 0.871865 165.176 -175.552)" fill="#91A69D"/>
<rect width="1.54893" height="1909.44" transform="matrix(0.721387 0.692532 -0.489747 0.871865 133.251 -206.2)" fill="#91A69D"/>
<rect width="1.54893" height="1909.44" transform="matrix(0.721387 0.692532 -0.489747 0.871865 171.56 -169.422)" fill="#91A69D"/>
<rect width="1.54893" height="1909.44" transform="matrix(0.721387 0.692532 -0.489747 0.871865 177.943 -163.293)" fill="#91A69D"/>
<rect width="1.54893" height="1909.44" transform="matrix(0.721387 0.692532 -0.489747 0.871865 216.258 -126.515)" fill="#91A69D"/>
<rect width="1.54893" height="1909.44" transform="matrix(0.721387 0.692532 -0.489747 0.871865 184.332 -157.162)" fill="#91A69D"/>
<rect width="1.54893" height="1909.44" transform="matrix(0.721387 0.692532 -0.489747 0.871865 222.642 -120.385)" fill="#91A69D"/>
<rect width="1.54893" height="1909.44" transform="matrix(0.721387 0.692532 -0.489747 0.871865 190.717 -151.033)" fill="#91A69D"/>
<rect width="1.54893" height="1909.44" transform="matrix(0.721387 0.692532 -0.489747 0.871865 229.024 -114.255)" fill="#91A69D"/>
<rect width="1.54893" height="1909.44" transform="matrix(0.721387 0.692532 -0.489747 0.871865 197.101 -144.903)" fill="#91A69D"/>
<rect width="1.54893" height="1909.44" transform="matrix(0.721387 0.692532 -0.489747 0.871865 235.41 -108.126)" fill="#91A69D"/>
<rect width="1.54893" height="1909.44" transform="matrix(0.721387 0.692532 -0.489747 0.871865 203.485 -138.774)" fill="#91A69D"/>
<rect width="1.54893" height="1909.44" transform="matrix(0.721387 0.692532 -0.489747 0.871865 241.798 -101.995)" fill="#91A69D"/>
<rect width="1.54893" height="1909.44" transform="matrix(0.721387 0.692532 -0.489747 0.871865 209.869 -132.645)" fill="#91A69D"/>
<rect width="1.54893" height="1909.44" transform="matrix(0.721387 0.692532 -0.489747 0.871865 248.182 -95.8657)" fill="#91A69D"/>
<rect width="1.54893" height="1909.44" transform="matrix(0.721387 0.692532 -0.489747 0.871865 254.566 -89.7368)" fill="#91A69D"/>
<rect width="1.54893" height="1909.44" transform="matrix(0.721387 0.692532 -0.489747 0.871865 292.874 -52.96)" fill="#91A69D"/>
<rect width="1.54893" height="1909.44" transform="matrix(0.721387 0.692532 -0.489747 0.871865 260.95 -83.6079)" fill="#91A69D"/>
<rect width="1.54893" height="1909.44" transform="matrix(0.721387 0.692532 -0.489747 0.871865 299.259 -46.8296)" fill="#91A69D"/>
<rect width="1.54893" height="1909.44" transform="matrix(0.721387 0.692532 -0.489747 0.871865 267.335 -77.478)" fill="#91A69D"/>
<rect width="1.54893" height="1909.44" transform="matrix(0.721387 0.692532 -0.489747 0.871865 305.647 -40.6992)" fill="#91A69D"/>
<rect width="1.54893" height="1909.44" transform="matrix(0.721387 0.692532 -0.489747 0.871865 273.722 -71.3481)" fill="#91A69D"/>
<rect width="1.54893" height="1909.44" transform="matrix(0.721387 0.692532 -0.489747 0.871865 312.031 -34.5703)" fill="#91A69D"/>
<rect width="1.54893" height="1909.44" transform="matrix(0.721387 0.692532 -0.489747 0.871865 280.106 -65.2183)" fill="#91A69D"/>
<rect width="1.54893" height="1909.44" transform="matrix(0.721387 0.692532 -0.489747 0.871865 318.415 -28.4414)" fill="#91A69D"/>
<rect width="1.54893" height="1909.44" transform="matrix(0.721387 0.692532 -0.489747 0.871865 286.491 -59.0894)" fill="#91A69D"/>
<rect width="1.54893" height="1909.44" transform="matrix(0.721387 0.692532 -0.489747 0.871865 324.799 -22.3115)" fill="#91A69D"/>
<rect width="1.54893" height="1909.44" transform="matrix(0.721387 0.692532 -0.489747 0.871865 331.187 -16.1812)" fill="#91A69D"/>
<rect width="1.54893" height="1909.44" transform="matrix(0.721387 0.692532 -0.489747 0.871865 369.497 20.5962)" fill="#91A69D"/>
<rect width="1.54893" height="1909.44" transform="matrix(0.721387 0.692532 -0.489747 0.871865 337.572 -10.0518)" fill="#91A69D"/>
<rect width="1.54893" height="1909.44" transform="matrix(0.721387 0.692532 -0.489747 0.871865 375.88 26.7256)" fill="#91A69D"/>
<rect width="1.54893" height="1909.44" transform="matrix(0.721387 0.692532 -0.489747 0.871865 343.956 -3.92236)" fill="#91A69D"/>
<rect width="1.54893" height="1909.44" transform="matrix(0.721387 0.692532 -0.489747 0.871865 382.266 32.8545)" fill="#91A69D"/>
<rect width="1.54893" height="1909.44" transform="matrix(0.721387 0.692532 -0.489747 0.871865 350.341 2.20654)" fill="#91A69D"/>
<rect width="1.54893" height="1909.44" transform="matrix(0.721387 0.692532 -0.489747 0.871865 388.652 38.9858)" fill="#91A69D"/>
<rect width="1.54893" height="1909.44" transform="matrix(0.721387 0.692532 -0.489747 0.871865 356.724 8.33643)" fill="#91A69D"/>
<rect width="1.54893" height="1909.44" transform="matrix(0.721387 0.692532 -0.489747 0.871865 395.036 45.1147)" fill="#91A69D"/>
<rect width="1.54893" height="1909.44" transform="matrix(0.721387 0.692532 -0.489747 0.871865 363.113 14.4663)" fill="#91A69D"/>
<rect width="1.54893" height="1909.44" transform="matrix(0.721387 0.692532 -0.489747 0.871865 401.421 51.2437)" fill="#91A69D"/>
<rect width="1.54893" height="1909.44" transform="matrix(0.721387 0.692532 -0.489747 0.871865 407.805 57.3735)" fill="#91A69D"/>
<rect width="1.54893" height="1909.44" transform="matrix(0.721387 0.692532 -0.489747 0.871865 446.114 94.1509)" fill="#91A69D"/>
<rect width="1.54893" height="1909.44" transform="matrix(0.721387 0.692532 -0.489747 0.871865 414.189 63.5029)" fill="#91A69D"/>
<rect width="1.54893" height="1909.44" transform="matrix(0.721387 0.692532 -0.489747 0.871865 452.502 100.281)" fill="#91A69D"/>
<rect width="1.54893" height="1909.44" transform="matrix(0.721387 0.692532 -0.489747 0.871865 420.577 69.6333)" fill="#91A69D"/>
<rect width="1.54893" height="1909.44" transform="matrix(0.721387 0.692532 -0.489747 0.871865 458.886 106.411)" fill="#91A69D"/>
<rect width="1.54893" height="1909.44" transform="matrix(0.721387 0.692532 -0.489747 0.871865 426.963 75.7622)" fill="#91A69D"/>
<rect width="1.54893" height="1909.44" transform="matrix(0.721387 0.692532 -0.489747 0.871865 465.27 112.54)" fill="#91A69D"/>
<rect width="1.54893" height="1909.44" transform="matrix(0.721387 0.692532 -0.489747 0.871865 433.346 81.8921)" fill="#91A69D"/>
<rect width="1.54893" height="1909.44" transform="matrix(0.721387 0.692532 -0.489747 0.871865 471.655 118.669)" fill="#91A69D"/>
<rect width="1.54893" height="1909.44" transform="matrix(0.721387 0.692532 -0.489747 0.871865 439.729 88.0215)" fill="#91A69D"/>
<rect width="1.54893" height="1909.44" transform="matrix(0.721387 0.692532 -0.489747 0.871865 478.043 124.799)" fill="#91A69D"/>
</g>
</g>
</svg>
