<svg width="131" height="74" viewBox="0 0 131 74" fill="none" xmlns="http://www.w3.org/2000/svg">
<path d="M1.36423 68.3887C3.25252 60.2281 10.0762 52.5435 19.3687 53.1965C26.4813 53.6964 33.1707 58.8147 37.8787 63.6054C38.6557 64.396 44.8347 71.1116 40.1017 71.8131C31.447 73.0958 26.169 65.837 25.2016 58.0778C23.7642 46.5491 29.4019 36.1852 38.7787 29.5809C50.411 21.3881 69.2378 15.1818 81.9987 24.0529C87.9491 28.1895 90.4561 33.0144 91.2931 40.0395C91.9594 45.6323 91.7597 52.4853 86.5903 56.2321C78.0828 62.3983 70.186 54.0328 67.3007 46.3221C61.4539 30.6978 70.5636 11.4107 86.2212 5.87392C99.9551 1.01742 115.039 0.842294 129.392 1.97594" stroke="black" stroke-width="2.5" stroke-linecap="round"/>
</svg>
